<?xml version="1.0" encoding="utf-8"?>
<svg version="1.1" xmlns:xlink="http://www.w3.org/1999/xlink" width="39px" height="30px" xmlns="http://www.w3.org/2000/svg">
  <g transform="matrix(1 0 0 1 -689 -114 )">
    <path d="M 27.802734375 3.857421875  C 25.2273995535714 2.95247395833333  22.4598214285714 2.5  19.5 2.5  C 16.5401785714286 2.5  13.7726004464286 2.95247395833333  11.197265625 3.857421875  C 8.62193080357143 4.76236979166667  6.576171875 5.98307291666667  5.05998883928571 7.51953125  C 3.54380580357143 9.05598958333333  2.78571428571429 10.7161458333333  2.78571428571429 12.5  C 2.78571428571429 13.9583333333333  3.30440848214286 15.3483072916667  4.341796875 16.669921875  C 5.37918526785714 17.9915364583333  6.84095982142857 19.1341145833333  8.72712053571428 20.09765625  L 10.6205357142857 21.07421875  L 10.0329241071429 22.94921875  C 9.68470982142857 24.1341145833333  9.17689732142857 25.25390625  8.50948660714286 26.30859375  C 10.71484375 25.48828125  12.7098214285714 24.375  14.4944196428571 22.96875  L 15.4302455357143 22.2265625  L 16.6707589285714 22.34375  C 17.671875 22.4479166666667  18.6149553571429 22.5  19.5 22.5  C 22.4598214285714 22.5  25.2273995535714 22.0475260416667  27.802734375 21.142578125  C 30.3780691964286 20.2376302083333  32.423828125 19.0169270833333  33.9400111607143 17.48046875  C 35.4561941964286 15.9440104166667  36.2142857142857 14.2838541666667  36.2142857142857 12.5  C 36.2142857142857 10.7161458333333  35.4561941964286 9.05598958333333  33.9400111607143 7.51953125  C 32.423828125 5.98307291666667  30.3780691964286 4.76236979166667  27.802734375 3.857421875  Z M 36.3883928571429 6.220703125  C 38.1294642857143 8.14127604166666  39 10.234375  39 12.5  C 39 14.765625  38.1294642857143 16.8587239583333  36.3883928571429 18.779296875  C 34.6473214285714 20.6998697916667  32.2823660714286 22.216796875  29.2935267857143 23.330078125  C 26.3046875 24.443359375  23.0401785714286 25  19.5 25  C 18.484375 25  17.4324776785714 24.9479166666667  16.3443080357143 24.84375  C 13.4715401785714 27.1223958333333  10.1344866071429 28.6979166666667  6.33314732142857 29.5703125  C 5.62220982142857 29.7526041666667  4.79520089285714 29.8958333333333  3.85212053571429 30  L 3.74330357142857 30  C 3.52566964285714 30  3.32979910714286 29.931640625  3.15569196428571 29.794921875  C 2.98158482142857 29.658203125  2.86551339285714 29.4791666666667  2.80747767857143 29.2578125  L 2.80747767857143 29.23828125  C 2.76395089285714 29.1861979166667  2.76032366071429 29.1080729166667  2.79659598214286 29.00390625  C 2.83286830357143 28.8997395833333  2.84737723214286 28.8346354166667  2.84012276785714 28.80859375  C 2.83286830357143 28.7825520833333  2.86551339285714 28.720703125  2.93805803571429 28.623046875  L 3.06863839285714 28.447265625  C 3.06863839285714 28.447265625  3.11941964285714 28.3919270833333  3.22098214285714 28.28125  C 3.32254464285714 28.1705729166667  3.38058035714286 28.1119791666667  3.39508928571429 28.10546875  C 3.49665178571429 28.0013020833333  3.72154017857143 27.7766927083333  4.06975446428571 27.431640625  C 4.41796875 27.0865885416667  4.66824776785714 26.8391927083333  4.82059151785714 26.689453125  C 4.97293526785714 26.5397135416667  5.19782366071429 26.2825520833333  5.49525669642857 25.91796875  C 5.79268973214286 25.5533854166667  6.02845982142857 25.2213541666667  6.20256696428571 24.921875  C 6.37667410714286 24.6223958333333  6.57254464285714 24.23828125  6.79017857142857 23.76953125  C 7.0078125 23.30078125  7.19642857142857 22.8059895833333  7.35602678571429 22.28515625  C 5.078125 21.1263020833333  3.28264508928571 19.6940104166667  1.96958705357143 17.98828125  C 0.656529017857143 16.2825520833333  0 14.453125  0 12.5  C 0 10.234375  0.870535714285714 8.14127604166666  2.61160714285714 6.220703125  C 4.35267857142857 4.30013020833333  6.71763392857143 2.783203125  9.70647321428572 1.669921875  C 12.6953125 0.556640625  15.9598214285714 0  19.5 0  C 23.0401785714286 0  26.3046875 0.556640625  29.2935267857143 1.669921875  C 32.2823660714286 2.783203125  34.6473214285714 4.30013020833333  36.3883928571429 6.220703125  Z " fill-rule="nonzero" fill="#7f7f7f" stroke="none" transform="matrix(1 0 0 1 689 114 )" />
  </g>
</svg>