<?xml version="1.0" encoding="utf-8"?>
<svg version="1.1" xmlns:xlink="http://www.w3.org/1999/xlink" width="31px" height="24px" xmlns="http://www.w3.org/2000/svg">
  <g transform="matrix(1 0 0 1 -55 -48 )">
    <path d="M 22.099609375 3.0859375  C 20.0525483630952 2.36197916666667  17.8526785714286 2  15.5 2  C 13.1473214285714 2  10.9474516369048 2.36197916666667  8.900390625 3.0859375  C 6.85332961309524 3.80989583333333  5.22721354166667 4.78645833333333  4.02204241071429 6.015625  C 2.8168712797619 7.24479166666666  2.21428571428571 8.57291666666666  2.21428571428571 10  C 2.21428571428571 11.1666666666667  2.62658110119048 12.2786458333333  3.451171875 13.3359375  C 4.27576264880952 14.3932291666667  5.43768601190476 15.3072916666667  6.93694196428571 16.078125  L 8.44196428571428 16.859375  L 7.97488839285714 18.359375  C 7.69810267857143 19.3072916666667  7.2944568452381 20.203125  6.76395089285714 21.046875  C 8.51692708333333 20.390625  10.1026785714286 19.5  11.5212053571429 18.375  L 12.2650669642857 17.78125  L 13.2511160714286 17.875  C 14.046875 17.9583333333333  14.7965029761905 18  15.5 18  C 17.8526785714286 18  20.0525483630952 17.6380208333333  22.099609375 16.9140625  C 24.1466703869048 16.1901041666667  25.7727864583333 15.2135416666667  26.9779575892857 13.984375  C 28.1831287202381 12.7552083333333  28.7857142857143 11.4270833333333  28.7857142857143 10  C 28.7857142857143 8.57291666666666  28.1831287202381 7.24479166666666  26.9779575892857 6.015625  C 25.7727864583333 4.78645833333333  24.1466703869048 3.80989583333333  22.099609375 3.0859375  Z M 28.9241071428571 4.9765625  C 30.3080357142857 6.51302083333333  31 8.1875  31 10  C 31 11.8125  30.3080357142857 13.4869791666667  28.9241071428571 15.0234375  C 27.5401785714286 16.5598958333333  25.6603422619048 17.7734375  23.2845982142857 18.6640625  C 20.9088541666667 19.5546875  18.3139880952381 20  15.5 20  C 14.6927083333333 20  13.8565848214286 19.9583333333333  12.9916294642857 19.875  C 10.7081473214286 21.6979166666667  8.05561755952381 22.9583333333333  5.03404017857143 23.65625  C 4.46893601190476 23.8020833333333  3.81156994047619 23.9166666666667  3.06194196428571 24  L 2.97544642857143 24  C 2.80245535714286 24  2.64676339285714 23.9453125  2.50837053571429 23.8359375  C 2.36997767857143 23.7265625  2.27771577380952 23.5833333333333  2.23158482142857 23.40625  L 2.23158482142857 23.390625  C 2.19698660714286 23.3489583333333  2.19410342261905 23.2864583333333  2.22293526785714 23.203125  C 2.25176711309524 23.1197916666667  2.26329985119048 23.0677083333333  2.25753348214286 23.046875  C 2.25176711309524 23.0260416666667  2.27771577380952 22.9765625  2.33537946428571 22.8984375  L 2.43917410714286 22.7578125  C 2.43917410714286 22.7578125  2.47953869047619 22.7135416666667  2.56026785714286 22.625  C 2.64099702380952 22.5364583333333  2.68712797619048 22.4895833333333  2.69866071428571 22.484375  C 2.77938988095238 22.4010416666667  2.95814732142857 22.2213541666667  3.23493303571429 21.9453125  C 3.51171875 21.6692708333333  3.71065848214286 21.4713541666667  3.83175223214286 21.3515625  C 3.95284598214286 21.2317708333333  4.13160342261905 21.0260416666667  4.36802455357143 20.734375  C 4.60444568452381 20.4427083333333  4.79185267857143 20.1770833333333  4.93024553571429 19.9375  C 5.06863839285714 19.6979166666667  5.22433035714286 19.390625  5.39732142857143 19.015625  C 5.5703125 18.640625  5.7202380952381 18.2447916666667  5.84709821428571 17.828125  C 4.03645833333333 16.9010416666667  2.60928199404762 15.7552083333333  1.56556919642857 14.390625  C 0.521856398809524 13.0260416666667  0 11.5625  0 10  C 0 8.1875  0.691964285714286 6.51302083333333  2.07589285714286 4.9765625  C 3.45982142857143 3.44010416666667  5.33965773809524 2.2265625  7.71540178571429 1.3359375  C 10.0911458333333 0.4453125  12.6860119047619 0  15.5 0  C 18.3139880952381 0  20.9088541666667 0.4453125  23.2845982142857 1.3359375  C 25.6603422619048 2.2265625  27.5401785714286 3.44010416666667  28.9241071428571 4.9765625  Z " fill-rule="nonzero" fill="#7f7f7f" stroke="none" transform="matrix(1 0 0 1 55 48 )" />
  </g>
</svg>