<?xml version="1.0" encoding="utf-8"?>
<svg version="1.1" xmlns:xlink="http://www.w3.org/1999/xlink" width="40px" height="40px" xmlns="http://www.w3.org/2000/svg">
  <g transform="matrix(1 0 0 1 -1104 -740 )">
    <path d="M 32.96875 21.1458333333333  C 33.28125 20.8333333333333  33.4375 20.4427083333333  33.4375 19.9739583333333  C 33.4375 19.5052083333333  33.28125 19.1145833333333  32.96875 18.8020833333333  L 23.5416666666667 9.375  L 21.171875 7.00520833333333  C 20.859375 6.69270833333333  20.46875 6.53645833333333  20 6.53645833333333  C 19.53125 6.53645833333333  19.140625 6.69270833333333  18.828125 7.00520833333333  L 16.4583333333333 9.375  L 7.03125 18.8020833333333  C 6.71875 19.1145833333333  6.5625 19.5052083333333  6.5625 19.9739583333333  C 6.5625 20.4427083333333  6.71875 20.8333333333333  7.03125 21.1458333333333  L 9.40104166666667 23.515625  C 9.71354166666667 23.828125  10.1041666666667 23.984375  10.5729166666667 23.984375  C 11.0416666666667 23.984375  11.4322916666667 23.828125  11.7447916666667 23.515625  L 17 18.59375  L 17 31.6666666666667  C 16.6666666666667 32.1180555555556  16.8315972222222 32.5086805555556  17.1614583333333 32.8385416666667  C 17.4913194444444 33.1684027777778  17.8819444444444 33.3333333333333  18.3333333333333 33.3333333333333  L 21.6666666666667 33.3333333333333  C 22.1180555555556 33.3333333333333  22.5086805555556 33.1684027777778  22.8385416666667 32.8385416666667  C 23.1684027777778 32.5086805555556  23.3333333333333 32.1180555555556  23 31.6666666666667  L 23 18.59375  L 28.2552083333333 23.515625  C 28.5850694444444 23.8454861111111  28.9756944444444 24.0104166666667  29.4270833333333 24.0104166666667  C 29.8784722222222 24.0104166666667  30.2690972222222 23.8454861111111  30.5989583333333 23.515625  L 32.96875 21.1458333333333  Z M 37.3177083333333 9.9609375  C 39.1059027777778 13.0251736111111  40 16.3715277777778  40 20  C 40 23.6284722222222  39.1059027777778 26.9748263888889  37.3177083333333 30.0390625  C 35.5295138888889 33.1032986111111  33.1032986111111 35.5295138888889  30.0390625 37.3177083333333  C 26.9748263888889 39.1059027777778  23.6284722222222 40  20 40  C 16.3715277777778 40  13.0251736111111 39.1059027777778  9.9609375 37.3177083333333  C 6.89670138888889 35.5295138888889  4.47048611111111 33.1032986111111  2.68229166666667 30.0390625  C 0.894097222222222 26.9748263888889  0 23.6284722222222  0 20  C 0 16.3715277777778  0.894097222222222 13.0251736111111  2.68229166666667 9.9609375  C 4.47048611111111 6.89670138888889  6.89670138888889 4.47048611111111  9.9609375 2.68229166666667  C 13.0251736111111 0.894097222222219  16.3715277777778 0  20 0  C 23.6284722222222 0  26.9748263888889 0.894097222222219  30.0390625 2.68229166666667  C 33.1032986111111 4.47048611111111  35.5295138888889 6.89670138888889  37.3177083333333 9.9609375  Z " fill-rule="nonzero" fill="#d7d7d7" stroke="none" transform="matrix(1 0 0 1 1104 740 )" />
  </g>
</svg>