<?xml version="1.0" encoding="utf-8"?>
<svg version="1.1" xmlns:xlink="http://www.w3.org/1999/xlink" width="30px" height="30px" xmlns="http://www.w3.org/2000/svg">
  <g transform="matrix(1 0 0 1 -405 -750 )">
    <path d="M 420 750  C 428.4 750  435 756.6  435 765  C 435 773.4  428.4 780  420 780  C 411.6 780  405 773.4  405 765  C 405 756.6  411.6 750  420 750  Z " fill-rule="nonzero" fill="#ffffff" stroke="none" />
    <path d="M 420 750.5  C 428.12 750.5  434.5 756.88  434.5 765  C 434.5 773.12  428.12 779.5  420 779.5  C 411.88 779.5  405.5 773.12  405.5 765  C 405.5 756.88  411.88 750.5  420 750.5  Z " stroke-width="1" stroke="#d7d7d7" fill="none" />
  </g>
</svg>