<?xml version="1.0" encoding="utf-8"?>
<svg version="1.1" xmlns:xlink="http://www.w3.org/1999/xlink" width="19px" height="35px" xmlns="http://www.w3.org/2000/svg">
  <g transform="matrix(1 0 0 1 -541 -865 )">
    <path d="M 4.9912109375 16.4772727272727  L 18.1650390625 0.34090909090909  C 18.4000651041667 0.0530303030303014  18.5979817708333 -0.0454545454545474  18.7587890625 0.0454545454545435  C 18.9195963541667 0.136363636363634  19 0.378787878787876  19 0.772727272727271  L 19 34.2272727272727  C 19 34.6212121212121  18.9195963541667 34.8636363636364  18.7587890625 34.9545454545455  C 18.5979817708333 35.0454545454545  18.4000651041667 34.9469696969697  18.1650390625 34.6590909090909  L 4.9912109375 18.5227272727273  C 4.8798828125 18.3863636363636  4.79947916666667 18.2424242424242  5 18.0909090909091  L 5 33.5  C 4.75 33.8939393939394  4.63248697916667 34.2348484848485  4.3974609375 34.5227272727273  C 4.16243489583333 34.8106060606061  3.88411458333333 34.9545454545455  3.5625 34.9545454545455  L 1.1875 34.9545454545455  C 0.865885416666667 34.9545454545455  0.587565104166667 34.8106060606061  0.3525390625 34.5227272727273  C 0.117513020833333 34.2348484848485  0 33.8939393939394  0 33.5  L 0 1.5  C 0 1.1060606060606  0.117513020833333 0.765151515151513  0.3525390625 0.477272727272728  C 0.587565104166667 0.189393939393936  0.865885416666667 0.0454545454545435  1.1875 0.0454545454545435  L 3.5625 0.0454545454545435  C 3.88411458333333 0.0454545454545435  4.16243489583333 0.189393939393936  4.3974609375 0.477272727272728  C 4.63248697916667 0.765151515151513  4.75 1.1060606060606  5 1.5  L 5 16.9090909090909  C 4.79947916666667 16.7575757575758  4.8798828125 16.6136363636364  4.9912109375 16.4772727272727  Z " fill-rule="nonzero" fill="#02a7f0" stroke="none" transform="matrix(1 0 0 1 541 865 )" />
  </g>
</svg>