<?xml version="1.0" encoding="utf-8"?>
<svg version="1.1" xmlns:xlink="http://www.w3.org/1999/xlink" width="10px" height="10px" xmlns="http://www.w3.org/2000/svg">
  <g transform="matrix(1 0 0 1 -315 -308 )">
    <path d="M 320 309  C 322.24 309  324 310.76  324 313  C 324 315.24  322.24 317  320 317  C 317.76 317  316 315.24  316 313  C 316 310.76  317.76 309  320 309  Z " fill-rule="nonzero" fill="#ffffff" stroke="none" />
    <path d="M 320 309  C 322.24 309  324 310.76  324 313  C 324 315.24  322.24 317  320 317  C 317.76 317  316 315.24  316 313  C 316 310.76  317.76 309  320 309  Z " stroke-width="2" stroke="#1890ff" fill="none" />
  </g>
</svg>