<?xml version="1.0" encoding="utf-8"?>
<svg version="1.1" xmlns:xlink="http://www.w3.org/1999/xlink" width="10px" height="10px" xmlns="http://www.w3.org/2000/svg">
  <g transform="matrix(1 0 0 1 -315 -432 )">
    <path d="M 320 433  C 322.24 433  324 434.76  324 437  C 324 439.24  322.24 441  320 441  C 317.76 441  316 439.24  316 437  C 316 434.76  317.76 433  320 433  Z " fill-rule="nonzero" fill="#ffffff" stroke="none" />
    <path d="M 320 433  C 322.24 433  324 434.76  324 437  C 324 439.24  322.24 441  320 441  C 317.76 441  316 439.24  316 437  C 316 434.76  317.76 433  320 433  Z " stroke-width="2" stroke="#caf982" fill="none" />
  </g>
</svg>