<?xml version="1.0" encoding="utf-8"?>
<svg version="1.1" xmlns:xlink="http://www.w3.org/1999/xlink" width="19px" height="35px" xmlns="http://www.w3.org/2000/svg">
  <g transform="matrix(1 0 0 1 -633 -865 )">
    <path d="M 14.0087890625 18.5227272727273  L 0.8349609375 34.6590909090909  C 0.599934895833333 34.9469696969697  0.402018229166667 35.0454545454545  0.2412109375 34.9545454545455  C 0.0804036458333334 34.8636363636364  0 34.6212121212121  0 34.2272727272727  L 0 0.772727272727271  C 0 0.378787878787876  0.0804036458333334 0.136363636363634  0.2412109375 0.0454545454545435  C 0.402018229166667 -0.0454545454545474  0.599934895833333 0.0530303030303014  0.8349609375 0.34090909090909  L 14.0087890625 16.4772727272727  C 14.1201171875 16.6136363636364  14.2005208333333 16.7575757575758  14 16.9090909090909  L 14 1.5  C 14.25 1.1060606060606  14.3675130208333 0.765151515151513  14.6025390625 0.477272727272728  C 14.8375651041667 0.189393939393936  15.1158854166667 0.0454545454545435  15.4375 0.0454545454545435  L 17.8125 0.0454545454545435  C 18.1341145833333 0.0454545454545435  18.4124348958333 0.189393939393936  18.6474609375 0.477272727272728  C 18.8824869791667 0.765151515151513  19 1.1060606060606  19 1.5  L 19 33.5  C 19 33.8939393939394  18.8824869791667 34.2348484848485  18.6474609375 34.5227272727273  C 18.4124348958333 34.8106060606061  18.1341145833333 34.9545454545455  17.8125 34.9545454545455  L 15.4375 34.9545454545455  C 15.1158854166667 34.9545454545455  14.8375651041667 34.8106060606061  14.6025390625 34.5227272727273  C 14.3675130208333 34.2348484848485  14.25 33.8939393939394  14 33.5  L 14 18.0909090909091  C 14.2005208333333 18.2424242424242  14.1201171875 18.3863636363636  14.0087890625 18.5227272727273  Z " fill-rule="nonzero" fill="#02a7f0" stroke="none" transform="matrix(1 0 0 1 633 865 )" />
  </g>
</svg>