<?xml version="1.0" encoding="utf-8"?>
<svg version="1.1" xmlns:xlink="http://www.w3.org/1999/xlink" width="14px" height="14px" xmlns="http://www.w3.org/2000/svg">
  <g transform="matrix(1 0 0 1 -766 -877 )">
    <path d="M 773 878  C 776.36 878  779 880.64  779 884  C 779 887.36  776.36 890  773 890  C 769.64 890  767 887.36  767 884  C 767 880.64  769.64 878  773 878  Z " fill-rule="nonzero" fill="#ffffff" stroke="none" />
    <path d="M 773 878  C 776.36 878  779 880.64  779 884  C 779 887.36  776.36 890  773 890  C 769.64 890  767 887.36  767 884  C 767 880.64  769.64 878  773 878  Z " stroke-width="2" stroke="#91d5ff" fill="none" />
  </g>
</svg>