<?xml version="1.0" encoding="utf-8"?>
<svg version="1.1" xmlns:xlink="http://www.w3.org/1999/xlink" width="29px" height="19px" xmlns="http://www.w3.org/2000/svg">
  <g transform="matrix(1 0 0 1 -1191 -883 )">
    <path d="M 0.72216796875 13.188671875  C 0.24072265625 12.016015625  0 10.7864583333333  0 9.5  C 0 8.21354166666667  0.24072265625 6.983984375  0.72216796875 5.811328125  C 1.20361328125 4.638671875  1.847900390625 3.629296875  2.655029296875 2.783203125  C 3.462158203125 1.937109375  4.425048828125 1.26171875  5.543701171875 0.757031249999999  C 6.662353515625 0.25234375  7.83528645833333 0  9.0625 0  L 19.9375 0  C 21.1647135416667 0  22.337646484375 0.25234375  23.456298828125 0.757031249999999  C 24.574951171875 1.26171875  25.537841796875 1.937109375  26.344970703125 2.783203125  C 27.152099609375 3.629296875  27.79638671875 4.638671875  28.27783203125 5.811328125  C 28.75927734375 6.983984375  29 8.21354166666667  29 9.5  C 29 10.7864583333333  28.75927734375 12.016015625  28.27783203125 13.188671875  C 27.79638671875 14.361328125  27.152099609375 15.370703125  26.344970703125 16.216796875  C 25.537841796875 17.062890625  24.574951171875 17.73828125  23.456298828125 18.24296875  C 22.337646484375 18.74765625  21.1647135416667 19  19.9375 19  L 9.0625 19  C 7.83528645833333 19  6.662353515625 18.74765625  5.543701171875 18.24296875  C 4.425048828125 17.73828125  3.462158203125 17.062890625  2.655029296875 16.216796875  C 1.847900390625 15.370703125  1.20361328125 14.361328125  0.72216796875 13.188671875  Z M 17.126708984375 16.498828125  C 18.018798828125 16.899609375  18.9557291666667 17.1  19.9375 17.1  C 20.9192708333333 17.1  21.856201171875 16.899609375  22.748291015625 16.498828125  C 23.640380859375 16.098046875  24.412109375 15.55625  25.0634765625 14.8734375  C 25.71484375 14.190625  26.231689453125 13.381640625  26.614013671875 12.446484375  C 26.996337890625 11.511328125  27.1875 10.5291666666667  27.1875 9.5  C 27.1875 8.47083333333333  26.996337890625 7.488671875  26.614013671875 6.553515625  C 26.231689453125 5.618359375  25.71484375 4.809375  25.0634765625 4.1265625  C 24.412109375 3.44375  23.640380859375 2.901953125  22.748291015625 2.501171875  C 21.856201171875 2.100390625  20.9192708333333 1.9  19.9375 1.9  C 18.9557291666667 1.9  18.018798828125 2.100390625  17.126708984375 2.501171875  C 16.234619140625 2.901953125  15.462890625 3.44375  14.8115234375 4.1265625  C 14.16015625 4.809375  13.643310546875 5.618359375  13.260986328125 6.553515625  C 12.878662109375 7.488671875  12.6875 8.47083333333333  12.6875 9.5  C 12.6875 10.5291666666667  12.878662109375 11.511328125  13.260986328125 12.446484375  C 13.643310546875 13.381640625  14.16015625 14.190625  14.8115234375 14.8734375  C 15.462890625 15.55625  16.234619140625 16.098046875  17.126708984375 16.498828125  Z " fill-rule="nonzero" fill="#02a7f0" stroke="none" transform="matrix(1 0 0 1 1191 883 )" />
  </g>
</svg>