<?xml version="1.0" encoding="utf-8"?>
<svg version="1.1" xmlns:xlink="http://www.w3.org/1999/xlink" width="186px" height="10px" preserveAspectRatio="xMinYMid meet" viewBox="1332 612  186 8" xmlns="http://www.w3.org/2000/svg">
  <path d="M 1334 883  L 1508 883  A 5 5 0 0 0 1513 878 L 1513 621  A 5 5 0 0 0 1508 616 L 1334 616  " stroke-width="2" stroke="#aaaaaa" fill="none" />
  <path d="M 1335.5 879.5  A 3.5 3.5 0 0 0 1332 883 A 3.5 3.5 0 0 0 1335.5 886.5 A 3.5 3.5 0 0 0 1339 883 A 3.5 3.5 0 0 0 1335.5 879.5 Z M 1341.4 608  L 1332 616  L 1341.4 624  L 1337.8 616  L 1341.4 608  Z " fill-rule="nonzero" fill="#aaaaaa" stroke="none" />
</svg>