<?xml version="1.0" encoding="utf-8"?>
<svg version="1.1" xmlns:xlink="http://www.w3.org/1999/xlink" width="10px" height="10px" xmlns="http://www.w3.org/2000/svg">
  <g transform="matrix(1 0 0 1 -315 -556 )">
    <path d="M 320 557  C 322.24 557  324 558.76  324 561  C 324 563.24  322.24 565  320 565  C 317.76 565  316 563.24  316 561  C 316 558.76  317.76 557  320 557  Z " fill-rule="nonzero" fill="#ffffff" stroke="none" />
    <path d="M 320 557  C 322.24 557  324 558.76  324 561  C 324 563.24  322.24 565  320 565  C 317.76 565  316 563.24  316 561  C 316 558.76  317.76 557  320 557  Z " stroke-width="2" stroke="#70b603" fill="none" />
  </g>
</svg>