<?xml version="1.0" encoding="utf-8"?>
<svg version="1.1" xmlns:xlink="http://www.w3.org/1999/xlink" width="1014px" height="10px" preserveAspectRatio="xMinYMid meet" viewBox="669 676  1014 8" xmlns="http://www.w3.org/2000/svg">
  <path d="M 674 696  L 674 685  A 5 5 0 0 1 679 680 L 1510 680  A 3 3 0 0 1 1513 677 A 3 3 0 0 1 1516 680 L 1673 680  A 5 5 0 0 1 1678 685 L 1678 1435  A 5 5 0 0 1 1673 1440 L 1637 1440  " stroke-width="2" stroke="#aaaaaa" fill="none" />
  <path d="M 674 691  A 3.5 3.5 0 0 0 670.5 694.5 A 3.5 3.5 0 0 0 674 698 A 3.5 3.5 0 0 0 677.5 694.5 A 3.5 3.5 0 0 0 674 691 Z M 1644.4 1432  L 1635 1440  L 1644.4 1448  L 1640.8 1440  L 1644.4 1432  Z " fill-rule="nonzero" fill="#aaaaaa" stroke="none" />
</svg>