<?xml version="1.0" encoding="utf-8"?>
<svg version="1.1" xmlns:xlink="http://www.w3.org/1999/xlink" width="10px" height="90px" preserveAspectRatio="xMidYMin meet" viewBox="1496 256  8 90" xmlns="http://www.w3.org/2000/svg">
  <path d="M 1280 403  L 1280 346  A 5 5 0 0 1 1285 341 L 1495 341  A 5 5 0 0 0 1500 336 L 1500 266  A 5 5 0 0 1 1505 261 L 1552 261  " stroke-width="2" stroke="#aaaaaa" fill="none" />
  <path d="M 1280 398  A 3.5 3.5 0 0 0 1276.5 401.5 A 3.5 3.5 0 0 0 1280 405 A 3.5 3.5 0 0 0 1283.5 401.5 A 3.5 3.5 0 0 0 1280 398 Z M 1544.6 269  L 1554 261  L 1544.6 253  L 1548.2 261  L 1544.6 269  Z " fill-rule="nonzero" fill="#aaaaaa" stroke="none" />
</svg>