<?xml version="1.0" encoding="utf-8"?>
<svg version="1.1" xmlns:xlink="http://www.w3.org/1999/xlink" width="228px" height="10px" preserveAspectRatio="xMinYMid meet" viewBox="1275 341  228 8" xmlns="http://www.w3.org/2000/svg">
  <path d="M 1280 403  L 1280 350  A 5 5 0 0 1 1285 345 L 1493 345  A 5 5 0 0 1 1498 350 L 1498 456  A 5 5 0 0 0 1503 461 L 1550 461  " stroke-width="2" stroke="#aaaaaa" fill="none" />
  <path d="M 1280 398  A 3.5 3.5 0 0 0 1276.5 401.5 A 3.5 3.5 0 0 0 1280 405 A 3.5 3.5 0 0 0 1283.5 401.5 A 3.5 3.5 0 0 0 1280 398 Z M 1542.6 469  L 1552 461  L 1542.6 453  L 1546.2 461  L 1542.6 469  Z " fill-rule="nonzero" fill="#aaaaaa" stroke="none" />
</svg>