<?xml version="1.0" encoding="utf-8"?>
<svg version="1.1" xmlns:xlink="http://www.w3.org/1999/xlink" width="34px" height="34px" preserveAspectRatio="xMinYMid meet" viewBox="703 1281  34 32" xmlns="http://www.w3.org/2000/svg">
  <path d="M 1225 595  L 1225 759  A 5 5 0 0 1 1220 764 L 725 764  A 5 5 0 0 0 720 769 L 720 1297  " stroke-width="2" stroke="#aaaaaa" fill="none" />
  <path d="M 1225 593  A 3.5 3.5 0 0 0 1221.5 596.5 A 3.5 3.5 0 0 0 1225 600 A 3.5 3.5 0 0 0 1228.5 596.5 A 3.5 3.5 0 0 0 1225 593 Z M 712 1289.6  L 720 1299  L 728 1289.6  L 720 1293.2  L 712 1289.6  Z " fill-rule="nonzero" fill="#aaaaaa" stroke="none" />
</svg>