<?xml version="1.0" encoding="utf-8"?>
<svg version="1.1" xmlns:xlink="http://www.w3.org/1999/xlink" width="10px" height="153px" preserveAspectRatio="xMidYMin meet" viewBox="718 1154  8 153" xmlns="http://www.w3.org/2000/svg">
  <path d="M 1298 729  L 1298 1154  A 5 5 0 0 1 1293 1159 L 727 1159  A 5 5 0 0 0 722 1164 L 722 1305  " stroke-width="2" stroke="#aaaaaa" fill="none" />
  <path d="M 1298 727  A 3.5 3.5 0 0 0 1294.5 730.5 A 3.5 3.5 0 0 0 1298 734 A 3.5 3.5 0 0 0 1301.5 730.5 A 3.5 3.5 0 0 0 1298 727 Z M 714 1297.6  L 722 1307  L 730 1297.6  L 722 1301.2  L 714 1297.6  Z " fill-rule="nonzero" fill="#aaaaaa" stroke="none" />
</svg>