<?xml version="1.0" encoding="utf-8"?>
<svg version="1.1" xmlns:xlink="http://www.w3.org/1999/xlink" width="525px" height="10px" preserveAspectRatio="xMinYMid meet" viewBox="715 760  525 8" xmlns="http://www.w3.org/2000/svg">
  <path d="M 1235 661  L 1235 759  A 5 5 0 0 1 1230 764 L 725 764  A 5 5 0 0 0 720 769 L 720 1297  " stroke-width="2" stroke="#aaaaaa" fill="none" />
  <path d="M 1235 659  A 3.5 3.5 0 0 0 1231.5 662.5 A 3.5 3.5 0 0 0 1235 666 A 3.5 3.5 0 0 0 1238.5 662.5 A 3.5 3.5 0 0 0 1235 659 Z M 712 1289.6  L 720 1299  L 728 1289.6  L 720 1293.2  L 712 1289.6  Z " fill-rule="nonzero" fill="#aaaaaa" stroke="none" />
</svg>