<?xml version="1.0" encoding="utf-8"?>
<svg version="1.1" xmlns:xlink="http://www.w3.org/1999/xlink" width="10px" height="192px" preserveAspectRatio="xMidYMin meet" viewBox="1248 577  8 192" xmlns="http://www.w3.org/2000/svg">
  <path d="M 1252 579  L 1252 759  A 5 5 0 0 1 1247 764 L 725 764  A 5 5 0 0 0 720 769 L 720 1297  " stroke-width="2" stroke="#aaaaaa" fill="none" />
  <path d="M 1252 577  A 3.5 3.5 0 0 0 1248.5 580.5 A 3.5 3.5 0 0 0 1252 584 A 3.5 3.5 0 0 0 1255.5 580.5 A 3.5 3.5 0 0 0 1252 577 Z M 712 1289.6  L 720 1299  L 728 1289.6  L 720 1293.2  L 712 1289.6  Z " fill-rule="nonzero" fill="#aaaaaa" stroke="none" />
</svg>