<?xml version="1.0" encoding="utf-8"?>
<svg version="1.1" xmlns:xlink="http://www.w3.org/1999/xlink" width="548px" height="10px" preserveAspectRatio="xMinYMid meet" viewBox="715 760  548 8" xmlns="http://www.w3.org/2000/svg">
  <path d="M 1258 601  L 1258 759  A 5 5 0 0 1 1253 764 L 725 764  A 5 5 0 0 0 720 769 L 720 1297  " stroke-width="2" stroke="#aaaaaa" fill="none" />
  <path d="M 1258 599  A 3.5 3.5 0 0 0 1254.5 602.5 A 3.5 3.5 0 0 0 1258 606 A 3.5 3.5 0 0 0 1261.5 602.5 A 3.5 3.5 0 0 0 1258 599 Z M 712 1289.6  L 720 1299  L 728 1289.6  L 720 1293.2  L 712 1289.6  Z " fill-rule="nonzero" fill="#aaaaaa" stroke="none" />
</svg>