<?xml version="1.0" encoding="utf-8"?>
<svg version="1.1" xmlns:xlink="http://www.w3.org/1999/xlink" width="89px" height="32px" xmlns="http://www.w3.org/2000/svg">
  <defs>
    <mask fill="white" id="clip272">
      <path d="M 89 27.4285714285714  L 89 4.57142857142857  C 89 2.01142857142857  86.5525 0  83.4375 0  L 0 0  L 0 32  L 83.4375 32  C 86.5525 32  89 29.9885714285714  89 27.4285714285714  Z " fill-rule="evenodd" />
    </mask>
  </defs>
  <g transform="matrix(1 0 0 1 -1668 -656 )">
    <path d="M 89 27.4285714285714  L 89 4.57142857142857  C 89 2.01142857142857  86.5525 0  83.4375 0  L 0 0  L 0 32  L 83.4375 32  C 86.5525 32  89 29.9885714285714  89 27.4285714285714  Z " fill-rule="nonzero" fill="#ffffff" stroke="none" transform="matrix(1 0 0 1 1668 656 )" />
    <path d="M 89 27.4285714285714  L 89 4.57142857142857  C 89 2.01142857142857  86.5525 0  83.4375 0  L 0 0  L 0 32  L 83.4375 32  C 86.5525 32  89 29.9885714285714  89 27.4285714285714  Z " stroke-width="2" stroke="#d9d9d9" fill="none" transform="matrix(1 0 0 1 1668 656 )" mask="url(#clip272)" />
  </g>
</svg>