<?xml version="1.0" encoding="utf-8"?>
<svg version="1.1" xmlns:xlink="http://www.w3.org/1999/xlink" width="34px" height="34px" preserveAspectRatio="xMinYMid meet" viewBox="703 1281  34 32" xmlns="http://www.w3.org/2000/svg">
  <path d="M 1251 604  L 1251 1156  A 5 5 0 0 1 1246 1161 L 725 1161  A 5 5 0 0 0 720 1166 L 720 1297  " stroke-width="2" stroke="#aaaaaa" fill="none" />
  <path d="M 1251 602  A 3.5 3.5 0 0 0 1247.5 605.5 A 3.5 3.5 0 0 0 1251 609 A 3.5 3.5 0 0 0 1254.5 605.5 A 3.5 3.5 0 0 0 1251 602 Z M 712 1289.6  L 720 1299  L 728 1289.6  L 720 1293.2  L 712 1289.6  Z " fill-rule="nonzero" fill="#aaaaaa" stroke="none" />
</svg>