<?xml version="1.0" encoding="utf-8"?>
<svg version="1.1" xmlns:xlink="http://www.w3.org/1999/xlink" width="612px" height="10px" preserveAspectRatio="xMinYMid meet" viewBox="744 1796  612 8" xmlns="http://www.w3.org/2000/svg">
  <path d="M 1350.68294196962 649.919395388264  A 2 2 0 0 1 1351 651 L 1351 1795  A 5 5 0 0 1 1346 1800 L 746 1800  " stroke-width="2" stroke="#aaaaaa" fill="none" />
  <path d="M 1351 647.85840734641  A 3.5 3.5 0 0 0 1347.5 651.35840734641 A 3.5 3.5 0 0 0 1351 654.85840734641 A 3.5 3.5 0 0 0 1354.5 651.35840734641 A 3.5 3.5 0 0 0 1351 647.85840734641 Z M 753.4 1792  L 744 1800  L 753.4 1808  L 749.8 1800  L 753.4 1792  Z " fill-rule="nonzero" fill="#aaaaaa" stroke="none" />
</svg>