<?xml version="1.0" encoding="utf-8"?>
<svg version="1.1" xmlns:xlink="http://www.w3.org/1999/xlink" width="211px" height="10px" preserveAspectRatio="xMinYMid meet" viewBox="1294 337  211 8" xmlns="http://www.w3.org/2000/svg">
  <path d="M 1299 403  L 1299 346  A 5 5 0 0 1 1304 341 L 1495 341  A 5 5 0 0 0 1500 336 L 1500 266  A 5 5 0 0 1 1505 261 L 1552 261  " stroke-width="2" stroke="#aaaaaa" fill="none" />
  <path d="M 1299 398  A 3.5 3.5 0 0 0 1295.5 401.5 A 3.5 3.5 0 0 0 1299 405 A 3.5 3.5 0 0 0 1302.5 401.5 A 3.5 3.5 0 0 0 1299 398 Z M 1544.6 269  L 1554 261  L 1544.6 253  L 1548.2 261  L 1544.6 269  Z " fill-rule="nonzero" fill="#aaaaaa" stroke="none" />
</svg>