<?xml version="1.0" encoding="utf-8"?>
<svg version="1.1" xmlns:xlink="http://www.w3.org/1999/xlink" width="50px" height="36px" xmlns="http://www.w3.org/2000/svg">
  <g transform="matrix(1 0 0 1 -1180 -1567 )">
    <path d="M 27.367617107943 34.1032258064516  C 26.1286490156144 35.3677419354839  25.3394433129667 36  25 36  C 24.6605566870333 36  23.8713509843856 35.3677419354839  22.632382892057 34.1032258064516  C 21.3934147997285 32.8387096774194  20.7739307535642 32.0344086021505  20.7739307535642 31.6903225806452  C 20.7739307535642 31.1397849462366  21.3043109300747 30.6752688172043  22.3650712830957 30.2967741935484  C 23.4258316361168 29.9182795698925  24.3041412084182 29.7290322580645  25 29.7290322580645  C 25.6958587915818 29.7290322580645  26.5741683638832 29.9182795698925  27.6349287169043 30.2967741935484  C 28.6956890699253 30.6752688172043  29.2260692464358 31.1397849462366  29.2260692464358 31.6903225806452  C 29.2260692464358 32.0344086021505  28.6065852002716 32.8387096774194  27.367617107943 34.1032258064516  Z M 34.2540733197556 27.0709677419355  C 32.9726748133062 28.3612903225806  32.1792260692464 29.0064516129032  31.8737270875764 29.0064516129032  C 31.8397827562797 29.0064516129032  31.500339443313 28.7913978494624  30.8553971486762 28.3612903225806  C 30.2104548540394 27.9311827956989  29.3491174473863 27.5010752688172  28.2713849287169 27.0709677419355  C 27.1936524100475 26.6408602150538  26.1031907671419 26.4258064516129  25 26.4258064516129  C 23.8968092328581 26.4258064516129  22.8063475899525 26.6408602150538  21.7286150712831 27.0709677419355  C 20.6508825526137 27.5010752688172  19.7937881873727 27.9311827956989  19.1573319755601 28.3612903225806  C 18.5208757637475 28.7913978494624  18.1771894093686 29.0064516129032  18.1262729124236 29.0064516129032  C 17.8207739307536 29.0064516129032  17.0273251866938 28.3612903225806  15.7459266802444 27.0709677419355  C 14.464528173795 25.7806451612903  13.8238289205703 24.9806451612903  13.8238289205703 24.6709677419355  C 13.8238289205703 24.447311827957  13.908689748812 24.2494623655914  14.0784114052953 24.0774193548387  C 15.4022403258656 22.752688172043  17.0655125594026 21.7118279569892  19.0682281059063 20.9548387096774  C 21.07094365241 20.1978494623656  23.0482009504413 19.8193548387097  25 19.8193548387097  C 26.9517990495587 19.8193548387097  28.92905634759 20.1978494623656  30.9317718940937 20.9548387096774  C 32.9344874405974 21.7118279569892  34.5977596741344 22.752688172043  35.9215885947047 24.0774193548387  C 36.0913102511881 24.2494623655914  36.1761710794297 24.447311827957  36.1761710794297 24.6709677419355  C 36.1761710794297 24.9806451612903  35.535471826205 25.7806451612903  34.2540733197556 27.0709677419355  Z M 41.1659877800407 20.0516129032258  C 39.8930753564155 21.341935483871  39.112355736592 21.9870967741936  38.8238289205703 21.9870967741936  C 38.6371350984386 21.9870967741936  38.4419551934827 21.9182795698925  38.2382892057026 21.7806451612903  C 35.9300746775289 19.9741935483871  33.7915818058384 18.6451612903226  31.8228105906314 17.7935483870968  C 29.8540393754243 16.941935483871  27.5797691785472 16.5161290322581  25 16.5161290322581  C 23.5573659198914 16.5161290322581  22.1104887983707 16.705376344086  20.6593686354379 17.0838709677419  C 19.2082484725051 17.4623655913978  17.943822131704 17.9182795698925  16.8660896130346 18.4516129032258  C 15.7883570943652 18.9849462365591  14.8251866938221 19.5182795698925  13.9765784114053 20.0516129032258  C 13.1279701289885 20.5849462365591  12.4575695858792 21.0408602150538  11.9653767820774 21.4193548387097  C 11.4731839782756 21.7978494623656  11.2101154107264 21.9870967741936  11.1761710794297 21.9870967741936  C 10.887644263408 21.9870967741936  10.1069246435845 21.341935483871  8.83401221995927 20.0516129032258  C 7.56109979633401 18.7612903225806  6.92464358452139 17.9612903225806  6.92464358452139 17.6516129032258  C 6.92464358452139 17.4451612903226  7.00950441276307 17.2559139784946  7.17922606924644 17.0838709677419  C 9.41955193482688 14.8129032258064  12.1350984385608 13.0494623655914  15.3258655804481 11.7935483870968  C 18.5166327223354 10.5376344086021  21.7413441955193 9.90967741935484  25 9.90967741935484  C 28.2586558044807 9.90967741935484  31.4833672776646 10.5376344086021  34.6741344195519 11.7935483870968  C 37.8649015614392 13.0494623655914  40.5804480651731 14.8129032258064  42.8207739307536 17.0838709677419  C 42.9904955872369 17.2559139784946  43.0753564154786 17.4451612903226  43.0753564154786 17.6516129032258  C 43.0753564154786 17.9612903225806  42.438900203666 18.7612903225806  41.1659877800407 20.0516129032258  Z M 48.0779022403259 13.058064516129  C 46.7965037338764 14.3483870967742  46.0115410726409 14.9935483870968  45.7230142566191 14.9935483870968  C 45.5363204344875 14.9935483870968  45.3496266123557 14.9161290322581  45.162932790224 14.7612903225806  C 42.1249151391718 12.0602150537634  38.9723353699932 10.0258064516129  35.7051934826884 8.65806451612903  C 32.4380515953836 7.29032258064516  28.8696537678208 6.60645161290323  25 6.60645161290323  C 21.1303462321792 6.60645161290323  17.5619484046164 7.29032258064516  14.2948065173116 8.65806451612903  C 11.0276646300068 10.0258064516129  7.87508486082824 12.0602150537634  4.83706720977597 14.7612903225806  C 4.65037338764426 14.9161290322581  4.46367956551256 14.9935483870968  4.27698574338086 14.9935483870968  C 3.98845892735913 14.9935483870968  3.20349626612356 14.3483870967742  1.92209775967413 13.058064516129  C 0.640699253224712 11.7677419354839  0 10.9677419354839  0 10.658064516129  C 0 10.4344086021505  0.0848608282416837 10.2365591397849  0.254582484725051 10.0645161290323  C 3.42837746096402 6.86451612903226  7.20468431771894 4.38709677419355  11.5835030549898 2.63225806451613  C 15.9623217922607 0.877419354838708  20.4344874405974 0  25 0  C 29.5655125594026 0  34.0376782077393 0.877419354838708  38.4164969450102 2.63225806451613  C 42.7953156822811 4.38709677419355  46.571622539036 6.86451612903226  49.745417515275 10.0645161290323  C 49.9151391717583 10.2365591397849  50 10.4344086021505  50 10.658064516129  C 50 10.9677419354839  49.3593007467753 11.7677419354839  48.0779022403259 13.058064516129  Z " fill-rule="nonzero" fill="#aaaaaa" stroke="none" transform="matrix(1 0 0 1 1180 1567 )" />
  </g>
</svg>