<?xml version="1.0" encoding="utf-8"?>
<svg version="1.1" xmlns:xlink="http://www.w3.org/1999/xlink" width="26px" height="18px" xmlns="http://www.w3.org/2000/svg">
  <g transform="matrix(1 0 0 1 -43 -14 )">
    <path d="M 14.2311608961303 17.0516129032258  C 13.5868974881195 17.6838709677419  13.1765105227427 18  13 18  C 12.8234894772573 18  12.4131025118805 17.6838709677419  11.7688391038697 17.0516129032258  C 11.1245756958588 16.4193548387097  10.8024439918534 16.0172043010753  10.8024439918534 15.8451612903226  C 10.8024439918534 15.5698924731183  11.0782416836388 15.3376344086022  11.6298370672098 15.1483870967742  C 12.1814324507807 14.9591397849462  12.6381534283775 14.8645161290323  13 14.8645161290323  C 13.3618465716225 14.8645161290323  13.8185675492193 14.9591397849462  14.3701629327902 15.1483870967742  C 14.9217583163612 15.3376344086022  15.1975560081466 15.5698924731183  15.1975560081466 15.8451612903226  C 15.1975560081466 16.0172043010753  14.8754243041412 16.4193548387097  14.2311608961303 17.0516129032258  Z M 17.8121181262729 13.5354838709677  C 17.1457909029192 14.1806451612903  16.7331975560081 14.5032258064516  16.5743380855397 14.5032258064516  C 16.5566870332654 14.5032258064516  16.3801765105227 14.3956989247312  16.0448065173116 14.1806451612903  C 15.7094365241005 13.9655913978495  15.2615410726409 13.7505376344086  14.7011201629328 13.5354838709677  C 14.1406992532247 13.3204301075269  13.5736591989138 13.2129032258065  13 13.2129032258065  C 12.4263408010862 13.2129032258065  11.8593007467753 13.3204301075269  11.2988798370672 13.5354838709677  C 10.7384589273591 13.7505376344086  10.2927698574338 13.9655913978495  9.96181262729124 14.1806451612903  C 9.63085539714868 14.3956989247312  9.45213849287169 14.5032258064516  9.42566191446029 14.5032258064516  C 9.26680244399185 14.5032258064516  8.85420909708079 14.1806451612903  8.18788187372709 13.5354838709677  C 7.52155465037339 12.8903225806452  7.18839103869654 12.4903225806452  7.18839103869654 12.3354838709677  C 7.18839103869654 12.2236559139785  7.23251866938221 12.1247311827957  7.32077393075356 12.0387096774194  C 8.0091649694501 11.3763440860215  8.87406653088934 10.8559139784946  9.91547861507128 10.4774193548387  C 10.9568906992532 10.0989247311828  11.9850644942295 9.90967741935484  13 9.90967741935484  C 14.0149355057705 9.90967741935484  15.0431093007468 10.0989247311828  16.0845213849287 10.4774193548387  C 17.1259334691107 10.8559139784946  17.9908350305499 11.3763440860215  18.6792260692464 12.0387096774194  C 18.7674813306178 12.1247311827957  18.8116089613035 12.2236559139785  18.8116089613035 12.3354838709677  C 18.8116089613035 12.4903225806452  18.4784453496266 12.8903225806452  17.8121181262729 13.5354838709677  Z M 21.4063136456212 10.0258064516129  C 20.7443991853361 10.6709677419355  20.3384249830278 10.9935483870968  20.1883910386965 10.9935483870968  C 20.0913102511881 10.9935483870968  19.989816700611 10.9591397849462  19.8839103869654 10.8903225806452  C 18.683638832315 9.98709677419355  17.571622539036 9.32258064516129  16.5478615071283 8.89677419354839  C 15.5241004752206 8.47096774193548  14.3414799728445 8.25806451612903  13 8.25806451612903  C 12.2498302783435 8.25806451612903  11.4974541751528 8.35268817204301  10.7428716904277 8.54193548387097  C 9.98828920570265 8.73118279569892  9.33078750848608 8.95913978494623  8.770366598778 9.2258064516129  C 8.20994568906993 9.49247311827957  7.70909708078751 9.75913978494624  7.26782077393075 10.0258064516129  C 6.826544467074 10.2924731182796  6.47793618465716 10.5204301075269  6.22199592668024 10.7096774193548  C 5.96605566870333 10.8989247311828  5.82926001357773 10.9935483870968  5.81160896130346 10.9935483870968  C 5.66157501697217 10.9935483870968  5.25560081466395 10.6709677419355  4.59368635437882 10.0258064516129  C 3.93177189409369 9.38064516129032  3.60081466395112 8.98064516129032  3.60081466395112 8.8258064516129  C 3.60081466395112 8.72258064516129  3.6449422946368 8.62795698924731  3.73319755600815 8.54193548387097  C 4.89816700610998 7.40645161290322  6.3102511880516 6.5247311827957  7.96945010183299 5.89677419354839  C 9.62864901561439 5.26881720430107  11.3054989816701 4.95483870967742  13 4.95483870967742  C 14.6945010183299 4.95483870967742  16.3713509843856 5.26881720430107  18.030549898167 5.89677419354839  C 19.6897488119484 6.5247311827957  21.10183299389 7.40645161290322  22.2668024439919 8.54193548387097  C 22.3550577053632 8.62795698924731  22.3991853360489 8.72258064516129  22.3991853360489 8.8258064516129  C 22.3991853360489 8.98064516129032  22.0682281059063 9.38064516129032  21.4063136456212 10.0258064516129  Z M 25.0005091649695 6.52903225806452  C 24.3341819416157 7.1741935483871  23.9260013577733 7.49677419354839  23.775967413442 7.49677419354839  C 23.6788866259335 7.49677419354839  23.581805838425 7.45806451612903  23.4847250509165 7.38064516129032  C 21.9049558723693 6.03010752688172  20.2656143923965 5.01290322580645  18.566700610998 4.32903225806452  C 16.8677868295995 3.64516129032258  15.0122199592668 3.30322580645161  13 3.30322580645161  C 10.9877800407332 3.30322580645161  9.13221317040054 3.64516129032258  7.43329938900204 4.32903225806452  C 5.73438560760353 5.01290322580645  4.09504412763069 6.03010752688172  2.5152749490835 7.38064516129032  C 2.41819416157502 7.45806451612903  2.32111337406653 7.49677419354839  2.22403258655804 7.49677419354839  C 2.07399864222675 7.49677419354839  1.66581805838425 7.1741935483871  0.99949083503055 6.52903225806452  C 0.33316361167685 5.88387096774194  0 5.48387096774194  0 5.32903225806452  C 0 5.21720430107527  0.0441276306856755 5.11827956989247  0.132382892057026 5.03225806451613  C 1.78275627970129 3.43225806451613  3.74643584521385 2.19354838709677  6.0234215885947 1.31612903225806  C 8.30040733197556 0.438709677419354  10.6259334691107 0  13 0  C 15.3740665308893 0  17.6995926680244 0.438709677419354  19.9765784114053 1.31612903225806  C 22.2535641547862 2.19354838709677  24.2172437202987 3.43225806451613  25.867617107943 5.03225806451613  C 25.9558723693143 5.11827956989247  26 5.21720430107527  26 5.32903225806452  C 26 5.48387096774194  25.6668363883232 5.88387096774194  25.0005091649695 6.52903225806452  Z " fill-rule="nonzero" fill="#ffffff" stroke="none" transform="matrix(1 0 0 1 43 14 )" />
  </g>
</svg>