<?xml version="1.0" encoding="utf-8"?>
<svg version="1.1" xmlns:xlink="http://www.w3.org/1999/xlink" width="41px" height="10px" preserveAspectRatio="xMinYMid meet" viewBox="1655 1591  41 8" xmlns="http://www.w3.org/2000/svg">
  <path d="M 1397 1497  L 1655 1497  A 5 5 0 0 1 1660 1502 L 1660 1590  A 5 5 0 0 0 1665 1595 L 1684 1595  " stroke-width="2" stroke="#aaaaaa" fill="none" />
  <path d="M 1398.5 1493.5  A 3.5 3.5 0 0 0 1395 1497 A 3.5 3.5 0 0 0 1398.5 1500.5 A 3.5 3.5 0 0 0 1402 1497 A 3.5 3.5 0 0 0 1398.5 1493.5 Z M 1682 1604.5  L 1696 1595  L 1682 1585.5  L 1682 1604.5  Z " fill-rule="nonzero" fill="#aaaaaa" stroke="none" />
</svg>