<?xml version="1.0" encoding="utf-8"?>
<svg version="1.1" xmlns:xlink="http://www.w3.org/1999/xlink" width="48px" height="28px" xmlns="http://www.w3.org/2000/svg">
  <g transform="matrix(1 0 0 1 -2000 -2054 )">
    <path d="M 1.1953125 19.4359375  C 0.3984375 17.7078125  0 15.8958333333333  0 14  C 0 12.1041666666667  0.3984375 10.2921875  1.1953125 8.5640625  C 1.9921875 6.8359375  3.05859375 5.3484375  4.39453125 4.1015625  C 5.73046875 2.8546875  7.32421875 1.859375  9.17578125 1.115625  C 11.02734375 0.371875000000001  12.96875 0  15 0  L 33 0  C 35.03125 0  36.97265625 0.371875000000001  38.82421875 1.115625  C 40.67578125 1.859375  42.26953125 2.8546875  43.60546875 4.1015625  C 44.94140625 5.3484375  46.0078125 6.8359375  46.8046875 8.5640625  C 47.6015625 10.2921875  48 12.1041666666667  48 14  C 48 15.8958333333333  47.6015625 17.7078125  46.8046875 19.4359375  C 46.0078125 21.1640625  44.94140625 22.6515625  43.60546875 23.8984375  C 42.26953125 25.1453125  40.67578125 26.140625  38.82421875 26.884375  C 36.97265625 27.628125  35.03125 28  33 28  L 15 28  C 12.96875 28  11.02734375 27.628125  9.17578125 26.884375  C 7.32421875 26.140625  5.73046875 25.1453125  4.39453125 23.8984375  C 3.05859375 22.6515625  1.9921875 21.1640625  1.1953125 19.4359375  Z M 28.34765625 24.3140625  C 29.82421875 24.9046875  31.375 25.2  33 25.2  C 34.625 25.2  36.17578125 24.9046875  37.65234375 24.3140625  C 39.12890625 23.7234375  40.40625 22.925  41.484375 21.91875  C 42.5625 20.9125  43.41796875 19.7203125  44.05078125 18.3421875  C 44.68359375 16.9640625  45 15.5166666666667  45 14  C 45 12.4833333333333  44.68359375 11.0359375  44.05078125 9.6578125  C 43.41796875 8.2796875  42.5625 7.0875  41.484375 6.08125  C 40.40625 5.075  39.12890625 4.2765625  37.65234375 3.6859375  C 36.17578125 3.0953125  34.625 2.8  33 2.8  C 31.375 2.8  29.82421875 3.0953125  28.34765625 3.6859375  C 26.87109375 4.2765625  25.59375 5.075  24.515625 6.08125  C 23.4375 7.0875  22.58203125 8.2796875  21.94921875 9.6578125  C 21.31640625 11.0359375  21 12.4833333333333  21 14  C 21 15.5166666666667  21.31640625 16.9640625  21.94921875 18.3421875  C 22.58203125 19.7203125  23.4375 20.9125  24.515625 21.91875  C 25.59375 22.925  26.87109375 23.7234375  28.34765625 24.3140625  Z " fill-rule="nonzero" fill="#0297d7" stroke="none" transform="matrix(1 0 0 1 2000 2054 )" />
  </g>
</svg>