<?xml version="1.0" encoding="utf-8"?>
<svg version="1.1" xmlns:xlink="http://www.w3.org/1999/xlink" width="30px" height="30px" xmlns="http://www.w3.org/2000/svg">
  <g transform="matrix(1 0 0 1 -2009 -2235 )">
    <path d="M 29.326171875 17.685546875  C 29.4498697916667 17.8092447916667  29.51171875 17.9557291666667  29.51171875 18.125  C 29.51171875 18.1901041666667  29.5052083333333 18.2356770833333  29.4921875 18.26171875  C 28.6588541666667 21.7513020833333  26.9140625 24.580078125  24.2578125 26.748046875  C 21.6015625 28.916015625  18.4895833333333 30  14.921875 30  C 13.0208333333333 30  11.181640625 29.6419270833333  9.404296875 28.92578125  C 7.626953125 28.2096354166667  6.04166666666667 27.1875  4.6484375 25.859375  L 2.12890625 28.37890625  C 1.88151041666667 28.6263020833333  1.58854166666667 28.75  1.25 28.75  C 0.911458333333333 28.75  0.618489583333333 28.6263020833333  0.37109375 28.37890625  C 0.123697916666667 28.1315104166667  0 27.8385416666667  0 27.5  L 0 18.75  C 0 18.4114583333333  0.123697916666667 18.1184895833333  0.37109375 17.87109375  C 0.618489583333333 17.6236979166667  0.911458333333333 17.5  1.25 17.5  L 10 17.5  C 10.3385416666667 17.5  10.6315104166667 17.6236979166667  10.87890625 17.87109375  C 11.1263020833333 18.1184895833333  11.25 18.4114583333333  11.25 18.75  C 11.25 19.0885416666667  11.1263020833333 19.3815104166667  10.87890625 19.62890625  L 8.203125 22.3046875  C 9.12760416666667 23.1640625  10.17578125 23.828125  11.34765625 24.296875  C 12.51953125 24.765625  13.7369791666667 25  15 25  C 16.7447916666667 25  18.3723958333333 24.5768229166667  19.8828125 23.73046875  C 21.3932291666667 22.8841145833333  22.6041666666667 21.71875  23.515625 20.234375  C 23.6588541666667 20.0130208333333  24.00390625 19.2513020833333  24.55078125 17.94921875  C 24.6549479166667 17.6497395833333  24.8502604166667 17.5  25.13671875 17.5  L 28.88671875 17.5  C 29.0559895833333 17.5  29.2024739583333 17.5618489583333  29.326171875 17.685546875  Z M 29.62890625 1.62109375  C 29.8763020833333 1.86848958333333  30 2.16145833333333  30 2.5  L 30 11.25  C 30 11.5885416666667  29.8763020833333 11.8815104166667  29.62890625 12.12890625  C 29.3815104166667 12.3763020833333  29.0885416666667 12.5  28.75 12.5  L 20 12.5  C 19.6614583333333 12.5  19.3684895833333 12.3763020833333  19.12109375 12.12890625  C 18.8736979166667 11.8815104166667  18.75 11.5885416666667  18.75 11.25  C 18.75 10.9114583333333  18.8736979166667 10.6184895833333  19.12109375 10.37109375  L 21.81640625 7.67578125  C 19.8893229166667 5.89192708333333  17.6171875 5  15 5  C 13.2552083333333 5  11.6276041666667 5.42317708333333  10.1171875 6.26953125  C 8.60677083333334 7.11588541666666  7.39583333333333 8.28125  6.484375 9.765625  C 6.34114583333333 9.98697916666666  5.99609375 10.7486979166667  5.44921875 12.05078125  C 5.34505208333333 12.3502604166667  5.14973958333333 12.5  4.86328125 12.5  L 0.9765625 12.5  C 0.807291666666667 12.5  0.660807291666667 12.4381510416667  0.537109375 12.314453125  C 0.413411458333333 12.1907552083333  0.3515625 12.0442708333333  0.3515625 11.875  L 0.3515625 11.73828125  C 1.19791666666667 8.24869791666667  2.95572916666667 5.419921875  5.625 3.251953125  C 8.29427083333333 1.083984375  11.4192708333333 0  15 0  C 16.9010416666667 0  18.75 0.361328125000001  20.546875 1.083984375  C 22.34375 1.806640625  23.9388020833333 2.82552083333333  25.33203125 4.140625  L 27.87109375 1.62109375  C 28.1184895833333 1.37369791666666  28.4114583333333 1.25  28.75 1.25  C 29.0885416666667 1.25  29.3815104166667 1.37369791666666  29.62890625 1.62109375  Z " fill-rule="nonzero" fill="#7f7f7f" stroke="none" transform="matrix(1 0 0 1 2009 2235 )" />
  </g>
</svg>