<?xml version="1.0" encoding="utf-8"?>
<svg version="1.1" xmlns:xlink="http://www.w3.org/1999/xlink" width="10px" height="1768px" preserveAspectRatio="xMidYMin meet" viewBox="1587 1670  8 1768" xmlns="http://www.w3.org/2000/svg">
  <path d="M 1397 1675  L 1586 1675  A 5 5 0 0 1 1591 1680 L 1591 2783  A 3 3 0 0 1 1594 2786 A 3 3 0 0 1 1591 2789 L 1591 3428  A 5 5 0 0 0 1596 3433 L 1685 3433  " stroke-width="2" stroke="#aaaaaa" fill="none" />
  <path d="M 1398.5 1671.5  A 3.5 3.5 0 0 0 1395 1675 A 3.5 3.5 0 0 0 1398.5 1678.5 A 3.5 3.5 0 0 0 1402 1675 A 3.5 3.5 0 0 0 1398.5 1671.5 Z M 1683 3442.5  L 1697 3433  L 1683 3423.5  L 1683 3442.5  Z " fill-rule="nonzero" fill="#aaaaaa" stroke="none" />
</svg>