<?xml version="1.0" encoding="utf-8"?>
<svg version="1.1" xmlns:xlink="http://www.w3.org/1999/xlink" width="30px" height="30px" xmlns="http://www.w3.org/2000/svg">
  <g transform="matrix(1 0 0 1 -2009 -4054 )">
    <path d="M 13.125 25.1171875  C 13.4635416666667 25.1171875  13.7565104166667 24.9934895833333  14.00390625 24.74609375  L 22.87109375 15.87890625  C 23.1184895833333 15.6315104166667  23.2421875 15.3385416666667  23.2421875 15  C 23.2421875 14.6614583333333  23.1184895833333 14.3684895833333  22.87109375 14.12109375  L 14.00390625 5.25390625  C 13.7565104166667 5.00651041666666  13.4635416666667 4.8828125  13.125 4.8828125  C 12.7864583333333 4.8828125  12.4934895833333 5.00651041666666  12.24609375 5.25390625  L 10.25390625 7.24609375  C 10.0065104166667 7.49348958333333  9.8828125 7.78645833333333  9.8828125 8.125  C 9.8828125 8.46354166666666  10.0065104166667 8.75651041666666  10.25390625 9.00390625  L 16.25 15  L 10.25390625 20.99609375  C 10.0065104166667 21.2434895833333  9.8828125 21.5364583333333  9.8828125 21.875  C 9.8828125 22.2135416666667  10.0065104166667 22.5065104166667  10.25390625 22.75390625  L 12.24609375 24.74609375  C 12.4934895833333 24.9934895833333  12.7864583333333 25.1171875  13.125 25.1171875  Z M 27.98828125 7.470703125  C 29.3294270833333 9.76888020833333  30 12.2786458333333  30 15  C 30 17.7213541666667  29.3294270833333 20.2311197916667  27.98828125 22.529296875  C 26.6471354166667 24.8274739583333  24.8274739583333 26.6471354166667  22.529296875 27.98828125  C 20.2311197916667 29.3294270833333  17.7213541666667 30  15 30  C 12.2786458333333 30  9.76888020833333 29.3294270833333  7.470703125 27.98828125  C 5.17252604166667 26.6471354166667  3.35286458333333 24.8274739583333  2.01171875 22.529296875  C 0.670572916666667 20.2311197916667  0 17.7213541666667  0 15  C 0 12.2786458333333  0.670572916666667 9.76888020833333  2.01171875 7.470703125  C 3.35286458333333 5.17252604166667  5.17252604166667 3.35286458333333  7.470703125 2.01171875  C 9.76888020833333 0.670572916666664  12.2786458333333 0  15 0  C 17.7213541666667 0  20.2311197916667 0.670572916666664  22.529296875 2.01171875  C 24.8274739583333 3.35286458333333  26.6471354166667 5.17252604166667  27.98828125 7.470703125  Z " fill-rule="nonzero" fill="#aaaaaa" stroke="none" transform="matrix(1 0 0 1 2009 4054 )" />
  </g>
</svg>