<?xml version="1.0" encoding="utf-8"?>
<svg version="1.1" xmlns:xlink="http://www.w3.org/1999/xlink" width="34px" height="34px" preserveAspectRatio="xMinYMid meet" viewBox="1673 3976  34 32" xmlns="http://www.w3.org/2000/svg">
  <path d="M 1333 1766  L 1550 1766  A 5 5 0 0 1 1555 1771 L 1555 3987  A 5 5 0 0 0 1560 3992 L 1684 3992  " stroke-width="2" stroke="#aaaaaa" fill="none" />
  <path d="M 1334.5 1762.5  A 3.5 3.5 0 0 0 1331 1766 A 3.5 3.5 0 0 0 1334.5 1769.5 A 3.5 3.5 0 0 0 1338 1766 A 3.5 3.5 0 0 0 1334.5 1762.5 Z M 1682 4001.5  L 1696 3992  L 1682 3982.5  L 1682 4001.5  Z " fill-rule="nonzero" fill="#aaaaaa" stroke="none" />
</svg>