<?xml version="1.0" encoding="utf-8"?>
<svg version="1.1" xmlns:xlink="http://www.w3.org/1999/xlink" width="10px" height="2671px" preserveAspectRatio="xMidYMin meet" viewBox="1518 1943  8 2671" xmlns="http://www.w3.org/2000/svg">
  <path d="M 1461 1948  L 1517 1948  A 5 5 0 0 1 1522 1953 L 1522 4604  A 5 5 0 0 0 1527 4609 L 1682 4609  " stroke-width="2" stroke="#aaaaaa" fill="none" />
  <path d="M 1462.5 1944.5  A 3.5 3.5 0 0 0 1459 1948 A 3.5 3.5 0 0 0 1462.5 1951.5 A 3.5 3.5 0 0 0 1466 1948 A 3.5 3.5 0 0 0 1462.5 1944.5 Z M 1680 4618.5  L 1694 4609  L 1680 4599.5  L 1680 4618.5  Z " fill-rule="nonzero" fill="#aaaaaa" stroke="none" />
</svg>