<?xml version="1.0" encoding="utf-8"?>
<svg version="1.1" xmlns:xlink="http://www.w3.org/1999/xlink" width="111px" height="111px" xmlns="http://www.w3.org/2000/svg">
  <g transform="matrix(1 0 0 1 -1907 -5191 )">
    <path d="M 1962.5 5192  C 1993.02 5192  2017 5215.98  2017 5246.5  C 2017 5277.02  1993.02 5301  1962.5 5301  C 1931.98 5301  1908 5277.02  1908 5246.5  C 1908 5215.98  1931.98 5192  1962.5 5192  Z " fill-rule="nonzero" fill="#ffffff" stroke="none" fill-opacity="0" />
    <path d="M 1962.5 5192  C 1993.02 5192  2017 5215.98  2017 5246.5  C 2017 5277.02  1993.02 5301  1962.5 5301  C 1931.98 5301  1908 5277.02  1908 5246.5  C 1908 5215.98  1931.98 5192  1962.5 5192  Z " stroke-width="2" stroke="#ffffff" fill="none" />
  </g>
</svg>