<?xml version="1.0" encoding="utf-8"?>
<svg version="1.1" xmlns:xlink="http://www.w3.org/1999/xlink" width="46px" height="50px" xmlns="http://www.w3.org/2000/svg">
  <g transform="matrix(1 0 0 1 -1940 -5222 )">
    <path d="M 43.5891927083333 16.6165865384615  C 45.1963975694444 19.8417467948718  46 23.2772435897436  46 26.9230769230769  C 46 30.0480769230769  45.3910590277778 33.0328525641026  44.1731770833333 35.8774038461538  C 42.9552951388889 38.7219551282051  41.3181423611111 41.1758814102564  39.26171875 43.2391826923077  C 37.2052951388889 45.302483974359  34.7595486111111 46.9451121794872  31.9244791666667 48.1670673076923  C 29.0894097222222 49.3890224358974  26.1145833333333 50  23 50  C 19.8854166666667 50  16.9105902777778 49.3890224358974  14.0755208333333 48.1670673076923  C 11.2404513888889 46.9451121794872  8.79470486111111 45.302483974359  6.73828125 43.2391826923077  C 4.68185763888889 41.1758814102564  3.04470486111111 38.7219551282051  1.82682291666667 35.8774038461538  C 0.608940972222222 33.0328525641026  0 30.0480769230769  0 26.9230769230769  C 0 23.2772435897436  0.803602430555556 19.8417467948718  2.41080729166667 16.6165865384615  C 4.01801215277778 13.3914262820513  6.27907986111111 10.6870993589744  9.19401041666667 8.50360576923077  C 10.0525173611111 7.86258012820512  11.005859375 7.61217948717948  12.0540364583333 7.75240384615384  C 13.1022135416667 7.8926282051282  13.9357638888889 8.39342948717948  14.5546875 9.25480769230769  C 15.1935763888889 10.0961538461538  15.4381510416667 11.0426682692308  15.2884114583333 12.0943509615385  C 15.138671875 13.1460336538462  14.64453125 13.9923878205128  13.8059895833333 14.6334134615385  C 11.8493923611111 16.1157852564103  10.3370225694444 17.9286858974359  9.26888020833333 20.0721153846154  C 8.20073784722222 22.2155448717949  7.66666666666667 24.4991987179487  7.66666666666667 26.9230769230769  C 7.66666666666667 29.0064102564103  8.07096354166667 30.9945913461538  8.87955729166667 32.8876201923077  C 9.68815104166667 34.7806490384615  10.78125 36.4182692307692  12.1588541666667 37.8004807692308  C 13.5364583333333 39.1826923076923  15.1686197916667 40.2794471153846  17.0553385416667 41.0907451923077  C 18.9420572916667 41.9020432692308  20.9236111111111 42.3076923076923  23 42.3076923076923  C 25.0763888888889 42.3076923076923  27.0579427083333 41.9020432692308  28.9446614583333 41.0907451923077  C 30.8313802083333 40.2794471153846  32.4635416666667 39.1826923076923  33.8411458333333 37.8004807692308  C 35.21875 36.4182692307692  36.3118489583333 34.7806490384615  37.1204427083333 32.8876201923077  C 37.9290364583333 30.9945913461538  38.3333333333333 29.0064102564103  38.3333333333333 26.9230769230769  C 38.3333333333333 24.4991987179487  37.7992621527778 22.2155448717949  36.7311197916667 20.0721153846154  C 35.6629774305556 17.9286858974359  34.1506076388889 16.1157852564103  32.1940104166667 14.6334134615385  C 31.35546875 13.9923878205128  30.861328125 13.1460336538462  30.7115885416667 12.0943509615385  C 30.5618489583333 11.0426682692308  30.8064236111111 10.0961538461538  31.4453125 9.25480769230769  C 32.0642361111111 8.39342948717948  32.9027777777778 7.8926282051282  33.9609375 7.75240384615384  C 35.0190972222222 7.61217948717948  35.9674479166667 7.86258012820512  36.8059895833333 8.50360576923077  C 39.7209201388889 10.6870993589744  41.9819878472222 13.3914262820513  43.5891927083333 16.6165865384615  Z M 25.6953125 1.14182692307692  C 26.4539930555556 1.90304487179487  26.8333333333333 2.80448717948718  26 3.84615384615384  L 26 23.0769230769231  C 26.8333333333333 24.1185897435897  26.4539930555556 25.020032051282  25.6953125 25.78125  C 24.9366319444444 26.5424679487179  24.0381944444444 26.9230769230769  23 26.9230769230769  C 21.9618055555556 26.9230769230769  21.0633680555556 26.5424679487179  20.3046875 25.78125  C 19.5460069444444 25.020032051282  19.1666666666667 24.1185897435897  20 23.0769230769231  L 20 3.84615384615384  C 19.1666666666667 2.80448717948718  19.5460069444444 1.90304487179487  20.3046875 1.14182692307692  C 21.0633680555556 0.380608974358976  21.9618055555556 0  23 0  C 24.0381944444444 0  24.9366319444444 0.380608974358976  25.6953125 1.14182692307692  Z " fill-rule="nonzero" fill="#ffffff" stroke="none" transform="matrix(1 0 0 1 1940 5222 )" />
  </g>
</svg>