<?xml version="1.0" encoding="utf-8"?>
<svg version="1.1" xmlns:xlink="http://www.w3.org/1999/xlink" width="34px" height="34px" preserveAspectRatio="xMinYMid meet" viewBox="2194 5225  34 32" xmlns="http://www.w3.org/2000/svg">
  <path d="M 2020 5247  L 2114 5247  A 3 3 0 0 0 2117 5244 A 3 3 0 0 1 2120 5241 L 2205 5241  " stroke-width="2" stroke="#aaaaaa" fill="none" />
  <path d="M 2021.5 5243.5  A 3.5 3.5 0 0 0 2018 5247 A 3.5 3.5 0 0 0 2021.5 5250.5 A 3.5 3.5 0 0 0 2025 5247 A 3.5 3.5 0 0 0 2021.5 5243.5 Z M 2203 5250.5  L 2217 5241  L 2203 5231.5  L 2203 5250.5  Z " fill-rule="nonzero" fill="#aaaaaa" stroke="none" />
</svg>