<?xml version="1.0" encoding="utf-8"?>
<svg version="1.1" xmlns:xlink="http://www.w3.org/1999/xlink" width="35px" height="35px" xmlns="http://www.w3.org/2000/svg">
  <g transform="matrix(1 0 0 1 -628 -341 )">
    <path d="M 8.7158203125 2.34700520833333  C 11.3970269097222 0.782335069444441  14.3250868055556 0  17.5 0  C 20.6749131944444 0  23.6029730902778 0.782335069444441  26.2841796875 2.34700520833333  C 28.9653862847222 3.91167534722222  31.0883246527778 6.03461371527778  32.6529947916667 8.7158203125  C 34.2176649305556 11.3970269097222  35 14.3250868055556  35 17.5  C 35 20.6749131944444  34.2176649305556 23.6029730902778  32.6529947916667 26.2841796875  C 31.0883246527778 28.9653862847222  28.9653862847222 31.0883246527778  26.2841796875 32.6529947916667  C 23.6029730902778 34.2176649305556  20.6749131944444 35  17.5 35  C 14.3250868055556 35  11.3970269097222 34.2176649305556  8.7158203125 32.6529947916667  C 6.03461371527778 31.0883246527778  3.91167534722222 28.9653862847222  2.34700520833333 26.2841796875  C 0.782335069444444 23.6029730902778  0 20.6749131944444  0 17.5  C 0 14.3250868055556  0.782335069444444 11.3970269097222  2.34700520833333 8.7158203125  C 3.91167534722222 6.03461371527778  6.03461371527778 3.91167534722222  8.7158203125 2.34700520833333  Z M 13.8541666666667 26.044921875  L 26.25 18.7532552083333  C 26.7361111111111 18.4798177083333  26.9791666666667 18.0620659722222  26.9791666666667 17.5  C 26.9791666666667 16.9379340277778  26.7361111111111 16.5201822916667  26.25 16.2467447916667  L 13.8541666666667 8.955078125  C 13.3832465277778 8.66644965277778  12.8971354166667 8.65885416666667  12.3958333333333 8.93229166666667  C 11.9097222222222 9.22092013888889  11.6666666666667 9.64626736111111  12 10.2083333333333  L 12 24.7916666666667  C 11.6666666666667 25.3537326388889  11.9097222222222 25.7790798611111  12.3958333333333 26.0677083333333  C 12.6388888888889 26.1892361111111  12.8819444444444 26.25  13.125 26.25  C 13.3832465277778 26.25  13.6263020833333 26.181640625  13.8541666666667 26.044921875  Z " fill-rule="nonzero" fill="#000000" stroke="none" transform="matrix(1 0 0 1 628 341 )" />
  </g>
</svg>