<?xml version="1.0" encoding="utf-8"?>
<svg version="1.1" xmlns:xlink="http://www.w3.org/1999/xlink" width="260px" height="10px" preserveAspectRatio="xMinYMid meet" viewBox="1044 1030  260 8" xmlns="http://www.w3.org/2000/svg">
  <path d="M 1299 649  L 1299 1029  A 5 5 0 0 1 1294 1034 L 1054 1034  A 5 5 0 0 0 1049 1039 L 1049 1119  " stroke-width="2" stroke="#aaaaaa" fill="none" />
  <path d="M 1299 647  A 3.5 3.5 0 0 0 1295.5 650.5 A 3.5 3.5 0 0 0 1299 654 A 3.5 3.5 0 0 0 1302.5 650.5 A 3.5 3.5 0 0 0 1299 647 Z M 1041 1111.6  L 1049 1121  L 1057 1111.6  L 1049 1115.2  L 1041 1111.6  Z " fill-rule="nonzero" fill="#aaaaaa" stroke="none" />
</svg>