<?xml version="1.0" encoding="utf-8"?>
<svg version="1.1" xmlns:xlink="http://www.w3.org/1999/xlink" width="138px" height="10px" preserveAspectRatio="xMinYMid meet" viewBox="1320 492  138 8" xmlns="http://www.w3.org/2000/svg">
  <path d="M 1325 488  L 1325 491  A 5 5 0 0 0 1330 496 L 1448 496  A 5 5 0 0 1 1453 501 L 1453 591  A 5 5 0 0 0 1458 596 L 1487 596  " stroke-width="2" stroke="#aaaaaa" fill="none" />
  <path d="M 1325 486  A 3.5 3.5 0 0 0 1321.5 489.5 A 3.5 3.5 0 0 0 1325 493 A 3.5 3.5 0 0 0 1328.5 489.5 A 3.5 3.5 0 0 0 1325 486 Z M 1479.6 604  L 1489 596  L 1479.6 588  L 1483.2 596  L 1479.6 604  Z " fill-rule="nonzero" fill="#aaaaaa" stroke="none" />
</svg>