<?xml version="1.0" encoding="utf-8"?>
<svg version="1.1" xmlns:xlink="http://www.w3.org/1999/xlink" width="10px" height="62px" preserveAspectRatio="xMidYMin meet" viewBox="1449 423  8 62" xmlns="http://www.w3.org/2000/svg">
  <path d="M 1324 488  L 1324 485  A 5 5 0 0 1 1329 480 L 1448 480  A 5 5 0 0 0 1453 475 L 1453 433  A 5 5 0 0 1 1458 428 L 1487 428  " stroke-width="2" stroke="#aaaaaa" fill="none" />
  <path d="M 1324 483  A 3.5 3.5 0 0 0 1320.5 486.5 A 3.5 3.5 0 0 0 1324 490 A 3.5 3.5 0 0 0 1327.5 486.5 A 3.5 3.5 0 0 0 1324 483 Z M 1479.6 436  L 1489 428  L 1479.6 420  L 1483.2 428  L 1479.6 436  Z " fill-rule="nonzero" fill="#aaaaaa" stroke="none" />
</svg>