<?xml version="1.0" encoding="utf-8"?>
<svg version="1.1" xmlns:xlink="http://www.w3.org/1999/xlink" width="34px" height="34px" preserveAspectRatio="xMinYMid meet" viewBox="1023 1889  34 32" xmlns="http://www.w3.org/2000/svg">
  <path d="M 961 1822  L 995 1822  A 5 5 0 0 1 1000 1827 L 1000 1900  A 5 5 0 0 0 1005 1905 L 1040 1905  " stroke-width="2" stroke="#aaaaaa" fill="none" />
  <path d="M 962.5 1818.5  A 3.5 3.5 0 0 0 959 1822 A 3.5 3.5 0 0 0 962.5 1825.5 A 3.5 3.5 0 0 0 966 1822 A 3.5 3.5 0 0 0 962.5 1818.5 Z M 1032.6 1913  L 1042 1905  L 1032.6 1897  L 1036.2 1905  L 1032.6 1913  Z " fill-rule="nonzero" fill="#aaaaaa" stroke="none" />
</svg>