<?xml version="1.0" encoding="utf-8"?>
<svg version="1.1" xmlns:xlink="http://www.w3.org/1999/xlink" width="47px" height="10px" preserveAspectRatio="xMinYMid meet" viewBox="995 1901  47 8" xmlns="http://www.w3.org/2000/svg">
  <path d="M 961 1990  L 995 1990  A 5 5 0 0 0 1000 1985 L 1000 1910  A 5 5 0 0 1 1005 1905 L 1040 1905  " stroke-width="2" stroke="#aaaaaa" fill="none" />
  <path d="M 962.5 1986.5  A 3.5 3.5 0 0 0 959 1990 A 3.5 3.5 0 0 0 962.5 1993.5 A 3.5 3.5 0 0 0 966 1990 A 3.5 3.5 0 0 0 962.5 1986.5 Z M 1032.6 1913  L 1042 1905  L 1032.6 1897  L 1036.2 1905  L 1032.6 1913  Z " fill-rule="nonzero" fill="#aaaaaa" stroke="none" />
</svg>