<?xml version="1.0" encoding="utf-8"?>
<svg version="1.1" xmlns:xlink="http://www.w3.org/1999/xlink" width="48px" height="10px" preserveAspectRatio="xMinYMid meet" viewBox="1215 1817  48 8" xmlns="http://www.w3.org/2000/svg">
  <path d="M 1182 1905  L 1215 1905  A 5 5 0 0 0 1220 1900 L 1220 1826  A 5 5 0 0 1 1225 1821 L 1261 1821  " stroke-width="2" stroke="#aaaaaa" fill="none" />
  <path d="M 1183.5 1901.5  A 3.5 3.5 0 0 0 1180 1905 A 3.5 3.5 0 0 0 1183.5 1908.5 A 3.5 3.5 0 0 0 1187 1905 A 3.5 3.5 0 0 0 1183.5 1901.5 Z M 1253.6 1829  L 1263 1821  L 1253.6 1813  L 1257.2 1821  L 1253.6 1829  Z " fill-rule="nonzero" fill="#aaaaaa" stroke="none" />
</svg>