<?xml version="1.0" encoding="utf-8"?>
<svg version="1.1" xmlns:xlink="http://www.w3.org/1999/xlink" width="38px" height="10px" preserveAspectRatio="xMinYMid meet" viewBox="357 2517  38 8" xmlns="http://www.w3.org/2000/svg">
  <path d="M 359 2521  L 385 2521  A 5 5 0 0 0 390 2516 L 390 2442  A 5 5 0 0 1 395 2437 L 428 2437  " stroke-width="2" stroke="#aaaaaa" fill="none" />
  <path d="M 360.5 2517.5  A 3.5 3.5 0 0 0 357 2521 A 3.5 3.5 0 0 0 360.5 2524.5 A 3.5 3.5 0 0 0 364 2521 A 3.5 3.5 0 0 0 360.5 2517.5 Z M 420.6 2445  L 430 2437  L 420.6 2429  L 424.2 2437  L 420.6 2445  Z " fill-rule="nonzero" fill="#aaaaaa" stroke="none" />
</svg>