<?xml version="1.0" encoding="utf-8"?>
<svg version="1.1" xmlns:xlink="http://www.w3.org/1999/xlink" width="10px" height="95px" preserveAspectRatio="xMidYMin meet" viewBox="596 2432  8 95" xmlns="http://www.w3.org/2000/svg">
  <path d="M 570 2437  L 595 2437  A 5 5 0 0 1 600 2442 L 600 2517  A 5 5 0 0 0 605 2522 L 635 2522  " stroke-width="2" stroke="#aaaaaa" fill="none" />
  <path d="M 571.5 2433.5  A 3.5 3.5 0 0 0 568 2437 A 3.5 3.5 0 0 0 571.5 2440.5 A 3.5 3.5 0 0 0 575 2437 A 3.5 3.5 0 0 0 571.5 2433.5 Z M 627.6 2530  L 637 2522  L 627.6 2514  L 631.2 2522  L 627.6 2530  Z " fill-rule="nonzero" fill="#aaaaaa" stroke="none" />
</svg>