<?xml version="1.0" encoding="utf-8"?>
<svg version="1.1" xmlns:xlink="http://www.w3.org/1999/xlink" width="70px" height="70px" xmlns="http://www.w3.org/2000/svg">
  <g transform="matrix(1 0 0 1 -100 -508 )">
    <path d="M 135 508  C 154.6 508  170 523.4  170 543  C 170 562.6  154.6 578  135 578  C 115.4 578  100 562.6  100 543  C 100 523.4  115.4 508  135 508  Z " fill-rule="nonzero" fill="#f2f2f2" stroke="none" />
    <path d="M 135 508.5  C 154.32 508.5  169.5 523.68  169.5 543  C 169.5 562.32  154.32 577.5  135 577.5  C 115.68 577.5  100.5 562.32  100.5 543  C 100.5 523.68  115.68 508.5  135 508.5  Z " stroke-width="1" stroke="#7f7f7f" fill="none" />
  </g>
</svg>