<?xml version="1.0" encoding="utf-8"?>
<svg version="1.1" xmlns:xlink="http://www.w3.org/1999/xlink" width="10px" height="95px" preserveAspectRatio="xMidYMin meet" viewBox="776 1900  8 95" xmlns="http://www.w3.org/2000/svg">
  <path d="M 743 1905  L 775 1905  A 5 5 0 0 1 780 1910 L 780 1985  A 5 5 0 0 0 785 1990 L 819 1990  " stroke-width="2" stroke="#aaaaaa" fill="none" />
  <path d="M 744.5 1901.5  A 3.5 3.5 0 0 0 741 1905 A 3.5 3.5 0 0 0 744.5 1908.5 A 3.5 3.5 0 0 0 748 1905 A 3.5 3.5 0 0 0 744.5 1901.5 Z M 811.6 1998  L 821 1990  L 811.6 1982  L 815.2 1990  L 811.6 1998  Z " fill-rule="nonzero" fill="#aaaaaa" stroke="none" />
</svg>