<?xml version="1.0" encoding="utf-8"?>
<svg version="1.1" xmlns:xlink="http://www.w3.org/1999/xlink" width="48px" height="10px" preserveAspectRatio="xMinYMid meet" viewBox="1215 1985  48 8" xmlns="http://www.w3.org/2000/svg">
  <path d="M 1182 1905  L 1215 1905  A 5 5 0 0 1 1220 1910 L 1220 1984  A 5 5 0 0 0 1225 1989 L 1261 1989  " stroke-width="2" stroke="#aaaaaa" fill="none" />
  <path d="M 1183.5 1901.5  A 3.5 3.5 0 0 0 1180 1905 A 3.5 3.5 0 0 0 1183.5 1908.5 A 3.5 3.5 0 0 0 1187 1905 A 3.5 3.5 0 0 0 1183.5 1901.5 Z M 1253.6 1997  L 1263 1989  L 1253.6 1981  L 1257.2 1989  L 1253.6 1997  Z " fill-rule="nonzero" fill="#aaaaaa" stroke="none" />
</svg>