<?xml version="1.0" encoding="utf-8"?>
<svg version="1.1" xmlns:xlink="http://www.w3.org/1999/xlink" width="34px" height="34px" preserveAspectRatio="xMinYMid meet" viewBox="411 2506  34 32" xmlns="http://www.w3.org/2000/svg">
  <path d="M 359 2521  L 392.5 2521  A 0.5 0.5 0 0 1 393 2521.5 A 0.5 0.5 0 0 0 393.5 2522 L 428 2522  " stroke-width="2" stroke="#aaaaaa" fill="none" />
  <path d="M 360.5 2517.5  A 3.5 3.5 0 0 0 357 2521 A 3.5 3.5 0 0 0 360.5 2524.5 A 3.5 3.5 0 0 0 364 2521 A 3.5 3.5 0 0 0 360.5 2517.5 Z M 420.6 2530  L 430 2522  L 420.6 2514  L 424.2 2522  L 420.6 2530  Z " fill-rule="nonzero" fill="#aaaaaa" stroke="none" />
</svg>