<?xml version="1.0" encoding="utf-8"?>
<svg version="1.1" xmlns:xlink="http://www.w3.org/1999/xlink" width="34px" height="34px" preserveAspectRatio="xMinYMid meet" viewBox="618 2506  34 32" xmlns="http://www.w3.org/2000/svg">
  <path d="M 570 2606  L 595 2606  A 5 5 0 0 0 600 2601 L 600 2527  A 5 5 0 0 1 605 2522 L 635 2522  " stroke-width="2" stroke="#aaaaaa" fill="none" />
  <path d="M 571.5 2602.5  A 3.5 3.5 0 0 0 568 2606 A 3.5 3.5 0 0 0 571.5 2609.5 A 3.5 3.5 0 0 0 575 2606 A 3.5 3.5 0 0 0 571.5 2602.5 Z M 627.6 2530  L 637 2522  L 627.6 2514  L 631.2 2522  L 627.6 2530  Z " fill-rule="nonzero" fill="#aaaaaa" stroke="none" />
</svg>