<?xml version="1.0" encoding="utf-8"?>
<svg version="1.1" xmlns:xlink="http://www.w3.org/1999/xlink" width="30px" height="50px" xmlns="http://www.w3.org/2000/svg">
  <g transform="matrix(1 0 0 1 -2784 -1036 )">
    <path d="M 29.62890625 0.618489583333331  C 29.8763020833333 1.03081597222222  30 1.51909722222222  30 2.08333333333333  L 30 47.9166666666667  C 30 48.4809027777778  29.8763020833333 48.9691840277778  29.62890625 49.3815104166667  C 29.3815104166667 49.7938368055556  29.0885416666667 50  28.75 50  L 18.75 50  C 18.4114583333333 50  18.1184895833333 49.7938368055556  17.87109375 49.3815104166667  C 17.6236979166667 48.9691840277778  17.5 48.4809027777778  17 47.9166666666667  L 17 2.08333333333333  C 17.5 1.51909722222222  17.6236979166667 1.03081597222222  17.87109375 0.618489583333331  C 18.1184895833333 0.206163194444442  18.4114583333333 0  18.75 0  L 28.75 0  C 29.0885416666667 0  29.3815104166667 0.206163194444442  29.62890625 0.618489583333331  Z M 12.12890625 0.618489583333331  C 12.3763020833333 1.03081597222222  12.5 1.51909722222222  13 2.08333333333333  L 13 47.9166666666667  C 12.5 48.4809027777778  12.3763020833333 48.9691840277778  12.12890625 49.3815104166667  C 11.8815104166667 49.7938368055556  11.5885416666667 50  11.25 50  L 1.25 50  C 0.911458333333333 50  0.618489583333333 49.7938368055556  0.37109375 49.3815104166667  C 0.123697916666667 48.9691840277778  0 48.4809027777778  0 47.9166666666667  L 0 2.08333333333333  C 0 1.51909722222222  0.123697916666667 1.03081597222222  0.37109375 0.618489583333331  C 0.618489583333333 0.206163194444442  0.911458333333333 0  1.25 0  L 11.25 0  C 11.5885416666667 0  11.8815104166667 0.206163194444442  12.12890625 0.618489583333331  Z " fill-rule="nonzero" fill="#000000" stroke="none" transform="matrix(1 0 0 1 2784 1036 )" />
  </g>
</svg>