<?xml version="1.0" encoding="utf-8"?>
<svg version="1.1" xmlns:xlink="http://www.w3.org/1999/xlink" width="50px" height="50px" xmlns="http://www.w3.org/2000/svg">
  <g transform="matrix(1 0 0 1 -2942 -1036 )">
    <path d="M 12.451171875 3.35286458333333  C 16.2814670138889 1.11762152777777  20.4644097222222 0  25 0  C 29.5355902777778 0  33.7185329861111 1.11762152777777  37.548828125 3.35286458333333  C 41.3791232638889 5.58810763888888  44.4118923611111 8.62087673611111  46.6471354166667 12.451171875  C 48.8823784722222 16.2814670138889  50 20.4644097222222  50 25  C 50 29.5355902777778  48.8823784722222 33.7185329861111  46.6471354166667 37.548828125  C 44.4118923611111 41.3791232638889  41.3791232638889 44.4118923611111  37.548828125 46.6471354166667  C 33.7185329861111 48.8823784722222  29.5355902777778 50  25 50  C 20.4644097222222 50  16.2814670138889 48.8823784722222  12.451171875 46.6471354166667  C 8.62087673611111 44.4118923611111  5.58810763888889 41.3791232638889  3.35286458333333 37.548828125  C 1.11762152777778 33.7185329861111  0 29.5355902777778  0 25  C 0 20.4644097222222  1.11762152777778 16.2814670138889  3.35286458333333 12.451171875  C 5.58810763888889 8.62087673611111  8.62087673611111 5.58810763888888  12.451171875 3.35286458333333  Z M 16.11328125 40.33203125  C 18.8259548611111 41.9162326388889  21.7881944444444 42.7083333333333  25 42.7083333333333  C 28.2118055555556 42.7083333333333  31.1740451388889 41.9162326388889  33.88671875 40.33203125  C 36.5993923611111 38.7478298611111  38.7478298611111 36.5993923611111  40.33203125 33.88671875  C 41.9162326388889 31.1740451388889  42.7083333333333 28.2118055555556  42.7083333333333 25  C 42.7083333333333 21.7881944444444  41.9162326388889 18.8259548611111  40.33203125 16.11328125  C 38.7478298611111 13.4006076388889  36.5993923611111 11.2521701388889  33.88671875 9.66796875  C 31.1740451388889 8.08376736111111  28.2118055555556 7.29166666666667  25 7.29166666666667  C 21.7881944444444 7.29166666666667  18.8259548611111 8.08376736111111  16.11328125 9.66796875  C 13.4006076388889 11.2521701388889  11.2521701388889 13.4006076388889  9.66796875 16.11328125  C 8.08376736111111 18.8259548611111  7.29166666666667 21.7881944444444  7.29166666666667 25  C 7.29166666666667 28.2118055555556  8.08376736111111 31.1740451388889  9.66796875 33.88671875  C 11.2521701388889 36.5993923611111  13.4006076388889 38.7478298611111  16.11328125 40.33203125  Z M 34.375 35  L 15.625 35  C 15.3211805555556 35.4166666666667  15.0716145833333 35.3190104166667  14.8763020833333 35.1236979166667  C 14.6809895833333 34.9283854166667  14.5833333333333 34.6788194444444  15 34.375  L 15 15.625  C 14.5833333333333 15.3211805555556  14.6809895833333 15.0716145833333  14.8763020833333 14.8763020833333  C 15.0716145833333 14.6809895833333  15.3211805555556 14.5833333333333  15.625 15  L 34.375 15  C 34.6788194444444 14.5833333333333  34.9283854166667 14.6809895833333  35.1236979166667 14.8763020833333  C 35.3190104166667 15.0716145833333  35.4166666666667 15.3211805555556  35 15.625  L 35 34.375  C 35.4166666666667 34.6788194444444  35.3190104166667 34.9283854166667  35.1236979166667 35.1236979166667  C 34.9283854166667 35.3190104166667  34.6788194444444 35.4166666666667  34.375 35  Z " fill-rule="nonzero" fill="#d9001b" stroke="none" transform="matrix(1 0 0 1 2942 1036 )" />
  </g>
</svg>