<?xml version="1.0" encoding="utf-8"?>
<svg version="1.1" xmlns:xlink="http://www.w3.org/1999/xlink" width="30px" height="22px" xmlns="http://www.w3.org/2000/svg">
  <g transform="matrix(1 0 0 1 -1746 -2308 )">
    <path d="M 16.4205702647658 20.8408602150538  C 15.6771894093686 21.6136200716846  15.20366598778 22  15 22  C 14.79633401222 22  14.3228105906314 21.6136200716846  13.5794297352342 20.8408602150538  C 12.8360488798371 20.0681003584229  12.4643584521385 19.5765830346475  12.4643584521385 19.3663082437276  C 12.4643584521385 19.0298685782557  12.7825865580448 18.7459976105137  13.4190427698574 18.5146953405018  C 14.0554989816701 18.2833930704898  14.5824847250509 18.1677419354839  15 18.1677419354839  C 15.4175152749491 18.1677419354839  15.9445010183299 18.2833930704898  16.5809572301426 18.5146953405018  C 17.2174134419552 18.7459976105137  17.5356415478615 19.0298685782557  17.5356415478615 19.3663082437276  C 17.5356415478615 19.5765830346475  17.1639511201629 20.0681003584229  16.4205702647658 20.8408602150538  Z M 20.5524439918534 16.5433691756272  C 19.7836048879837 17.3318996415771  19.3075356415479 17.726164874552  19.1242362525458 17.726164874552  C 19.1038696537678 17.726164874552  18.9002036659878 17.594743130227  18.5132382892057 17.3318996415771  C 18.1262729124236 17.0690561529271  17.6094704684318 16.8062126642772  16.9628309572301 16.5433691756272  C 16.3161914460285 16.2805256869773  15.6619144602851 16.1491039426523  15 16.1491039426523  C 14.3380855397149 16.1491039426523  13.6838085539715 16.2805256869773  13.0371690427699 16.5433691756272  C 12.3905295315682 16.8062126642772  11.8762729124236 17.0690561529271  11.4943991853361 17.3318996415771  C 11.1125254582485 17.594743130227  10.9063136456212 17.726164874552  10.8757637474542 17.726164874552  C 10.6924643584521 17.726164874552  10.2163951120163 17.3318996415771  9.44755600814664 16.5433691756272  C 8.67871690427699 15.7548387096774  8.29429735234216 15.2659498207885  8.29429735234216 15.0767025089606  C 8.29429735234216 14.9400238948626  8.34521384928717 14.8191158900836  8.44704684317719 14.7139784946237  C 9.24134419551935 13.9044205495818  10.2393075356415 13.268339307049  11.4409368635438 12.8057347670251  C 12.642566191446 12.3431302270012  13.8289205702648 12.1118279569892  15 12.1118279569892  C 16.1710794297352 12.1118279569892  17.357433808554 12.3431302270012  18.5590631364562 12.8057347670251  C 19.7606924643585 13.268339307049  20.7586558044807 13.9044205495818  21.5529531568228 14.7139784946237  C 21.6547861507128 14.8191158900836  21.7057026476578 14.9400238948626  21.7057026476578 15.0767025089606  C 21.7057026476578 15.2659498207885  21.321283095723 15.7548387096774  20.5524439918534 16.5433691756272  Z M 24.6995926680244 12.2537634408602  C 23.9358452138493 13.04229390681  23.4674134419552 13.4365591397849  23.2942973523422 13.4365591397849  C 23.1822810590631 13.4365591397849  23.0651731160896 13.394504181601  22.9429735234216 13.310394265233  C 21.5580448065173 12.2064516129032  20.2749490835031 11.3942652329749  19.0936863543788 10.873835125448  C 17.9124236252546 10.3534050179211  16.5478615071283 10.0931899641577  15 10.0931899641577  C 14.1344195519348 10.0931899641577  13.2662932790224 10.2088410991637  12.3956211812627 10.4401433691756  C 11.5249490835031 10.6714456391876  10.7662932790224 10.9500597371565  10.1196537678208 11.2759856630824  C 9.47301425661915 11.6019115890084  8.89511201629328 11.9278375149343  8.38594704684318 12.2537634408602  C 7.87678207739308 12.5796893667861  7.4745417515275 12.8583034647551  7.17922606924644 13.089605734767  C 6.88391038696538 13.320908004779  6.72606924643585 13.4365591397849  6.70570264765784 13.4365591397849  C 6.53258655804481 13.4365591397849  6.06415478615071 13.04229390681  5.30040733197556 12.2537634408602  C 4.53665987780041 11.4652329749104  4.15478615071283 10.9763440860215  4.15478615071283 10.7870967741935  C 4.15478615071283 10.6609318996416  4.20570264765784 10.5452807646356  4.30753564154786 10.4401433691756  C 5.65173116089613 9.05232974910394  7.28105906313646 7.97467144563919  9.19551934826884 7.20716845878136  C 11.1099796334012 6.43966547192354  13.0448065173116 6.05591397849462  15 6.05591397849462  C 16.9551934826884 6.05591397849462  18.8900203665988 6.43966547192354  20.8044806517312 7.20716845878136  C 22.7189409368635 7.97467144563919  24.3482688391039 9.05232974910394  25.6924643584521 10.4401433691756  C 25.7942973523422 10.5452807646356  25.8452138492872 10.6609318996416  25.8452138492872 10.7870967741935  C 25.8452138492872 10.9763440860215  25.4633401221996 11.4652329749104  24.6995926680244 12.2537634408602  Z M 28.8467413441955 7.97992831541219  C 28.0779022403259 8.76845878136201  27.6069246435845 9.16272401433692  27.4338085539715 9.16272401433692  C 27.3217922606925 9.16272401433692  27.2097759674134 9.11541218637993  27.0977596741344 9.02078853046595  C 25.2749490835031 7.37013142174432  23.3834012219959 6.12688172043011  21.423116089613 5.2910394265233  C 19.4628309572301 4.45519713261649  17.3217922606925 4.03727598566308  15 4.03727598566308  C 12.6782077393075 4.03727598566308  10.5371690427699 4.45519713261649  8.57688391038696 5.2910394265233  C 6.61659877800407 6.12688172043011  4.72505091649695 7.37013142174432  2.90224032586558 9.02078853046595  C 2.79022403258656 9.11541218637993  2.67820773930754 9.16272401433692  2.56619144602851 9.16272401433692  C 2.39307535641548 9.16272401433692  1.92209775967413 8.76845878136201  1.15325865580448 7.97992831541219  C 0.384419551934827 7.19139784946237  0 6.70250896057348  0 6.51326164874552  C 0 6.37658303464755  0.0509164969450102 6.25567502986858  0.152749490835031 6.1505376344086  C 2.05702647657841 4.19498207885305  4.32281059063136 2.68100358422939  6.95010183299389 1.60860215053763  C 9.57739307535642 0.536200716845877  12.2606924643585 0  15 0  C 17.7393075356416 0  20.4226069246436 0.536200716845877  23.0498981670061 1.60860215053763  C 25.6771894093686 2.68100358422939  27.9429735234216 4.19498207885305  29.847250509165 6.1505376344086  C 29.949083503055 6.25567502986858  30 6.37658303464755  30 6.51326164874552  C 30 6.70250896057348  29.6155804480652 7.19139784946237  28.8467413441955 7.97992831541219  Z " fill-rule="nonzero" fill="#7f7f7f" stroke="none" transform="matrix(1 0 0 1 1746 2308 )" />
  </g>
</svg>