<?xml version="1.0" encoding="utf-8"?>
<svg version="1.1" xmlns:xlink="http://www.w3.org/1999/xlink" width="31px" height="18px" xmlns="http://www.w3.org/2000/svg">
  <g transform="matrix(1 0 0 1 -43 -14 )">
    <path d="M 16.9679226069246 17.0516129032258  C 16.1997623896809 17.6838709677419  15.7104548540394 18  15.5 18  C 15.2895451459606 18  14.8002376103191 17.6838709677419  14.0320773930754 17.0516129032258  C 13.2639171758316 16.4193548387097  12.8798370672098 16.0172043010753  12.8798370672098 15.8451612903226  C 12.8798370672098 15.5698924731183  13.2086727766463 15.3376344086022  13.8663441955193 15.1483870967742  C 14.5240156143924 14.9591397849462  15.0685675492193 14.8645161290323  15.5 14.8645161290323  C 15.9314324507807 14.8645161290323  16.4759843856076 14.9591397849462  17.1336558044807 15.1483870967742  C 17.7913272233537 15.3376344086022  18.1201629327902 15.5698924731183  18.1201629327902 15.8451612903226  C 18.1201629327902 16.0172043010753  17.7360828241684 16.4193548387097  16.9679226069246 17.0516129032258  Z M 21.2375254582485 13.5354838709677  C 20.4430583842498 14.1806451612903  19.9511201629328 14.5032258064516  19.7617107942974 14.5032258064516  C 19.7406653088934 14.5032258064516  19.530210454854 14.3956989247312  19.1303462321792 14.1806451612903  C 18.7304820095044 13.9655913978495  18.1964528173795 13.7505376344086  17.5282586558045 13.5354838709677  C 16.8600644942295 13.3204301075269  16.183978275628 13.2129032258065  15.5 13.2129032258065  C 14.816021724372 13.2129032258065  14.1399355057705 13.3204301075269  13.4717413441955 13.5354838709677  C 12.8035471826205 13.7505376344086  12.2721486761711 13.9655913978495  11.8775458248473 14.1806451612903  C 11.4829429735234 14.3956989247312  11.2698574338086 14.5032258064516  11.2382892057026 14.5032258064516  C 11.0488798370672 14.5032258064516  10.5569416157502 14.1806451612903  9.76247454175153 13.5354838709677  C 8.96800746775289 12.8903225806452  8.57077393075356 12.4903225806452  8.57077393075356 12.3354838709677  C 8.57077393075356 12.2236559139785  8.62338764426341 12.1247311827957  8.7286150712831 12.0387096774194  C 9.54938900203666 11.3763440860215  10.5806177868296 10.8559139784946  11.8223014256619 10.4774193548387  C 13.0639850644942 10.0989247311828  14.2898845892736 9.90967741935484  15.5 9.90967741935484  C 16.7101154107264 9.90967741935484  17.9360149355058 10.0989247311828  19.1776985743381 10.4774193548387  C 20.4193822131704 10.8559139784946  21.4506109979633 11.3763440860215  22.2713849287169 12.0387096774194  C 22.3766123557366 12.1247311827957  22.4292260692464 12.2236559139785  22.4292260692464 12.3354838709677  C 22.4292260692464 12.4903225806452  22.0319925322471 12.8903225806452  21.2375254582485 13.5354838709677  Z M 25.5229124236253 10.0258064516129  C 24.7337067209776 10.6709677419355  24.249660556687 10.9935483870968  24.0707739307536 10.9935483870968  C 23.9550237610319 10.9935483870968  23.8340122199593 10.9591397849462  23.7077393075356 10.8903225806452  C 22.2766463000679 9.98709677419355  20.9507807196198 9.32258064516129  19.7301425661914 8.89677419354839  C 18.5095044127631 8.47096774193548  17.0994568906993 8.25806451612903  15.5 8.25806451612903  C 14.6055668703327 8.25806451612903  13.7085030549898 8.35268817204301  12.8088085539715 8.54193548387097  C 11.9091140529532 8.73118279569892  11.1251697216565 8.95913978494623  10.4569755600815 9.2258064516129  C 9.78878139850645 9.49247311827957  9.19161575016972 9.75913978494624  8.66547861507128 10.0258064516129  C 8.13934147997285 10.2924731182796  7.72369314324508 10.5204301075269  7.41853360488798 10.7096774193548  C 7.11337406653089 10.8989247311828  6.95027155465037 10.9935483870968  6.92922606924644 10.9935483870968  C 6.75033944331297 10.9935483870968  6.2662932790224 10.6709677419355  5.47708757637475 10.0258064516129  C 4.68788187372709 9.38064516129032  4.29327902240326 8.98064516129032  4.29327902240326 8.8258064516129  C 4.29327902240326 8.72258064516129  4.3458927359131 8.62795698924731  4.45112016293279 8.54193548387097  C 5.84012219959267 7.40645161290322  7.52376103190767 6.5247311827957  9.5020366598778 5.89677419354839  C 11.4803122878479 5.26881720430107  13.479633401222 4.95483870967742  15.5 4.95483870967742  C 17.520366598778 4.95483870967742  19.5196877121521 5.26881720430107  21.4979633401222 5.89677419354839  C 23.4762389680923 6.5247311827957  25.1598778004073 7.40645161290322  26.5488798370672 8.54193548387097  C 26.6541072640869 8.62795698924731  26.7067209775967 8.72258064516129  26.7067209775967 8.8258064516129  C 26.7067209775967 8.98064516129032  26.3121181262729 9.38064516129032  25.5229124236253 10.0258064516129  Z M 29.808299389002 6.52903225806452  C 29.0138323150034 7.1741935483871  28.5271554650373 7.49677419354839  28.3482688391039 7.49677419354839  C 28.2325186693822 7.49677419354839  28.1167684996606 7.45806451612903  28.0010183299389 7.38064516129032  C 26.1174473862865 6.03010752688172  24.1628479293958 5.01290322580645  22.1372199592668 4.32903225806452  C 20.1115919891378 3.64516129032258  17.8991853360489 3.30322580645161  15.5 3.30322580645161  C 13.1008146639511 3.30322580645161  10.8884080108622 3.64516129032258  8.8627800407332 4.32903225806452  C 6.83715207060421 5.01290322580645  4.88255261371351 6.03010752688172  2.9989816700611 7.38064516129032  C 2.88323150033944 7.45806451612903  2.76748133061779 7.49677419354839  2.65173116089613 7.49677419354839  C 2.47284453496266 7.49677419354839  1.98616768499661 7.1741935483871  1.19170061099796 6.52903225806452  C 0.397233536999321 5.88387096774194  0 5.48387096774194  0 5.32903225806452  C 0 5.21720430107527  0.0526137135098439 5.11827956989247  0.157841140529532 5.03225806451613  C 2.12559402579769 3.43225806451613  4.46690427698574 2.19354838709677  7.18177189409369 1.31612903225806  C 9.89663951120163 0.438709677419354  12.6693822131704 0  15.5 0  C 18.3306177868296 0  21.1033604887984 0.438709677419354  23.8182281059063 1.31612903225806  C 26.5330957230143 2.19354838709677  28.8744059742023 3.43225806451613  30.8421588594705 5.03225806451613  C 30.9473862864902 5.11827956989247  31 5.21720430107527  31 5.32903225806452  C 31 5.48387096774194  30.6027664630007 5.88387096774194  29.808299389002 6.52903225806452  Z " fill-rule="nonzero" fill="#ffffff" stroke="none" transform="matrix(1 0 0 1 43 14 )" />
  </g>
</svg>