<?xml version="1.0" encoding="utf-8"?>
<svg version="1.1" xmlns:xlink="http://www.w3.org/1999/xlink" width="37px" height="50px" xmlns="http://www.w3.org/2000/svg">
  <g transform="matrix(1 0 0 1 -648 -1630 )">
    <path d="M 20.5151285930408 37.6674107142857  L 20.5431164901664 29.3805803571429  L 24.6853252647504 33.5100446428571  L 20.5151285930408 37.6674107142857  Z M 20.5431164901664 20.6194196428571  L 20.5151285930408 12.3325892857143  L 24.6853252647504 16.4899553571429  L 20.5431164901664 20.6194196428571  Z M 17 29.4363839285714  L 17 46.484375  L 29.8630862329803 33.5379464285714  L 21.2987897125567 25  L 29.8630862329803 16.4620535714286  L 17 3.515625  L 17 20.5636160714286  L 9.73978819969743 13.4486607142857  L 7.13691376701967 16.0435267857143  L 16.0930408472012 25  L 7.13691376701967 33.9564732142857  L 9.73978819969743 36.5513392857143  L 17 29.4363839285714  Z M 36.1043872919818 14.8018973214286  C 36.7014624306606 17.7129836309524  37 21.1123511904762  37 25  C 37 28.8876488095238  36.7014624306606 32.2870163690476  36.1043872919818 35.1981026785714  C 35.5073121533031 38.1091889880952  34.6909984871407 40.4994419642857  33.6554462934947 42.3688616071429  C 32.6198940998487 44.23828125  31.309127584468 45.7496279761905  29.7231467473525 46.9029017857143  C 28.137165910237 48.0561755952381  26.4438981341402 48.8606770833333  24.643343419062 49.31640625  C 22.8427887039839 49.7721354166667  20.7950075642965 50  18.5 50  C 16.2049924357035 50  14.1572112960161 49.7721354166667  12.356656580938 49.31640625  C 10.5561018658598 48.8606770833333  8.86283408976299 48.0561755952381  7.2768532526475 46.9029017857143  C 5.69087241553202 45.7496279761905  4.38010590015129 44.23828125  3.34455370650529 42.3688616071429  C 2.3090015128593 40.4994419642857  1.49268784669692 38.1091889880952  0.895612708018154 35.1981026785714  C 0.298537569339385 32.2870163690476  0 28.8876488095238  0 25  C 0 21.1123511904762  0.298537569339385 17.7129836309524  0.895612708018154 14.8018973214286  C 1.49268784669692 11.8908110119048  2.3090015128593 9.50055803571428  3.34455370650529 7.63113839285715  C 4.38010590015129 5.76171875  5.69087241553202 4.25037202380952  7.2768532526475 3.09709821428572  C 8.86283408976299 1.9438244047619  10.5561018658598 1.13932291666666  12.356656580938 0.68359375  C 14.1572112960161 0.227864583333337  16.2049924357035 0  18.5 0  C 20.7950075642965 0  22.8427887039839 0.227864583333337  24.643343419062 0.68359375  C 26.4438981341402 1.13932291666666  28.137165910237 1.9438244047619  29.7231467473525 3.09709821428572  C 31.309127584468 4.25037202380952  32.6198940998487 5.76171875  33.6554462934947 7.63113839285715  C 34.6909984871407 9.50055803571428  35.5073121533031 11.8908110119048  36.1043872919818 14.8018973214286  Z " fill-rule="nonzero" fill="#aaaaaa" stroke="none" transform="matrix(1 0 0 1 648 1630 )" />
  </g>
</svg>